G04 #@! TF.FileFunction,Copper,L1,Top,Signal*
%FSLAX46Y46*%
G04 Gerber Fmt 4.6, Leading zero omitted, Abs format (unit mm)*
G04 Created by KiCad (PCBNEW 4.0.5) date Sunday, 09. April 2017 'u32' 16:32:30*
%MOMM*%
%LPD*%
G01*
G04 APERTURE LIST*
%ADD10C,0.100000*%
%ADD11R,1.600000X1.000000*%
%ADD12R,1.000000X1.250000*%
%ADD13C,5.600000*%
%ADD14R,1.700000X1.700000*%
%ADD15O,1.700000X1.700000*%
%ADD16R,0.700000X1.300000*%
%ADD17R,0.300000X0.650000*%
%ADD18R,1.240000X0.775000*%
%ADD19R,1.500000X3.600000*%
%ADD20C,0.600000*%
%ADD21C,0.250000*%
%ADD22C,0.254000*%
G04 APERTURE END LIST*
D10*
X136500000Y-80500000D02*
G75*
G03X135000000Y-79000000I-1500000J0D01*
G01*
X135000000Y-99000000D02*
G75*
G03X136500000Y-97500000I0J1500000D01*
G01*
X116000000Y-97500000D02*
G75*
G03X117500000Y-99000000I1500000J0D01*
G01*
X117500000Y-79000000D02*
G75*
G03X116000000Y-80500000I0J-1500000D01*
G01*
X116000000Y-80500000D02*
X116000000Y-97500000D01*
X135000000Y-79000000D02*
X117500000Y-79000000D01*
X136500000Y-97500000D02*
X136500000Y-80500000D01*
X117500000Y-99000000D02*
X135000000Y-99000000D01*
D11*
X119810000Y-86070000D03*
X119810000Y-89070000D03*
D12*
X125795000Y-93920000D03*
X127795000Y-93920000D03*
D11*
X129970000Y-86070000D03*
X129970000Y-89070000D03*
X132510000Y-86070000D03*
X132510000Y-89070000D03*
X122350000Y-86070000D03*
X122350000Y-89070000D03*
D13*
X133145000Y-81855000D03*
X119175000Y-81855000D03*
D14*
X121080000Y-96460000D03*
D15*
X123620000Y-96460000D03*
X126160000Y-96460000D03*
X128700000Y-96460000D03*
X131240000Y-96460000D03*
D16*
X122600000Y-94000000D03*
X124500000Y-94000000D03*
X121450000Y-94000000D03*
X119550000Y-94000000D03*
X121450000Y-92000000D03*
X119550000Y-92000000D03*
D17*
X127160000Y-86020000D03*
X126660000Y-86020000D03*
X126160000Y-86020000D03*
X125660000Y-86020000D03*
X125160000Y-86020000D03*
X125160000Y-89120000D03*
X125660000Y-89120000D03*
X126160000Y-89120000D03*
X126660000Y-89120000D03*
X127160000Y-89120000D03*
D18*
X125540000Y-87957500D03*
X126780000Y-87957500D03*
X125540000Y-87182500D03*
X126780000Y-87182500D03*
D19*
X127685000Y-82490000D03*
X124635000Y-82490000D03*
D20*
X135685000Y-85030000D03*
X135685000Y-86935000D03*
X135685000Y-88840000D03*
X135685000Y-90745000D03*
X135685000Y-92650000D03*
X135685000Y-94555000D03*
X135685000Y-96460000D03*
X135500000Y-98000000D03*
X129970000Y-79950000D03*
X128065000Y-79950000D03*
X122350000Y-79950000D03*
X124255000Y-79950000D03*
X126160000Y-79950000D03*
X133780000Y-98365000D03*
X131875000Y-98365000D03*
X129970000Y-98365000D03*
X128065000Y-98365000D03*
X126160000Y-98365000D03*
X124255000Y-98365000D03*
X122350000Y-98365000D03*
X120445000Y-98365000D03*
X118540000Y-98365000D03*
X116635000Y-85030000D03*
X116635000Y-86935000D03*
X116635000Y-88840000D03*
X116635000Y-90745000D03*
X116635000Y-92650000D03*
X116635000Y-94555000D03*
X116635000Y-96460000D03*
X117000000Y-98000000D03*
X133145000Y-90110000D03*
X131875000Y-90110000D03*
X130605000Y-90110000D03*
X129335000Y-90110000D03*
X122985000Y-90110000D03*
X121715000Y-90110000D03*
X120445000Y-90110000D03*
X119175000Y-90110000D03*
X125540000Y-87957500D03*
X126780000Y-87957500D03*
X126780000Y-87182500D03*
X125540000Y-87182500D03*
X126160000Y-94936000D03*
X126034990Y-90120324D03*
X133780000Y-86070000D03*
X128065000Y-88840000D03*
X124784978Y-90124492D03*
X125525000Y-90745000D03*
X120500000Y-94000000D03*
X120500000Y-92000000D03*
D21*
X122600000Y-94000000D02*
X122600000Y-94900000D01*
X122600000Y-94900000D02*
X121080000Y-96420000D01*
X121080000Y-96420000D02*
X121080000Y-96460000D01*
X122350000Y-86070000D02*
X125110000Y-86070000D01*
X125110000Y-86070000D02*
X125160000Y-86020000D01*
X122350000Y-86070000D02*
X121300000Y-86070000D01*
X121300000Y-86070000D02*
X119810000Y-86070000D01*
X135685000Y-96460000D02*
X135685000Y-97815000D01*
X135685000Y-97815000D02*
X135500000Y-98000000D01*
X133780000Y-98365000D02*
X135135000Y-98365000D01*
X135135000Y-98365000D02*
X135500000Y-98000000D01*
X118540000Y-98365000D02*
X117365000Y-98365000D01*
X117365000Y-98365000D02*
X117000000Y-98000000D01*
X116635000Y-96460000D02*
X116635000Y-97635000D01*
X116635000Y-97635000D02*
X117000000Y-98000000D01*
X135685000Y-88840000D02*
X135685000Y-86935000D01*
X135685000Y-92650000D02*
X135685000Y-90745000D01*
X135685000Y-96460000D02*
X135685000Y-94555000D01*
X126160000Y-79950000D02*
X128065000Y-79950000D01*
X126160000Y-79950000D02*
X124255000Y-79950000D01*
X131875000Y-98365000D02*
X133780000Y-98365000D01*
X128065000Y-98365000D02*
X129970000Y-98365000D01*
X128065000Y-98365000D02*
X126160000Y-98365000D01*
X128700000Y-98365000D02*
X128065000Y-98365000D01*
X126160000Y-98365000D02*
X124255000Y-98365000D01*
X124255000Y-98365000D02*
X122350000Y-98365000D01*
X122350000Y-98365000D02*
X120445000Y-98365000D01*
X120445000Y-98365000D02*
X118540000Y-98365000D01*
X116635000Y-90745000D02*
X116635000Y-88840000D01*
X116635000Y-92650000D02*
X116635000Y-90745000D01*
X116635000Y-96460000D02*
X116635000Y-94555000D01*
X128700000Y-96460000D02*
X128700000Y-98365000D01*
X132510000Y-89475000D02*
X133145000Y-90110000D01*
X132510000Y-89070000D02*
X132510000Y-89475000D01*
X132510000Y-89475000D02*
X131875000Y-90110000D01*
X129970000Y-89475000D02*
X130605000Y-90110000D01*
X129970000Y-89070000D02*
X129970000Y-89475000D01*
X129970000Y-89475000D02*
X129335000Y-90110000D01*
X122350000Y-89475000D02*
X122985000Y-90110000D01*
X122350000Y-89070000D02*
X122350000Y-89475000D01*
X122350000Y-89475000D02*
X121715000Y-90110000D01*
X119810000Y-89475000D02*
X120445000Y-90110000D01*
X119810000Y-89070000D02*
X119810000Y-89475000D01*
X119810000Y-89475000D02*
X119175000Y-90110000D01*
X125540000Y-87957500D02*
X125540000Y-87182500D01*
X126780000Y-87957500D02*
X125540000Y-87957500D01*
X126780000Y-87182500D02*
X126780000Y-87957500D01*
X125540000Y-87182500D02*
X126780000Y-87182500D01*
X126660000Y-89120000D02*
X126660000Y-88077500D01*
X126660000Y-88077500D02*
X126780000Y-87957500D01*
X126160000Y-86020000D02*
X126160000Y-87337500D01*
X126160000Y-87337500D02*
X126780000Y-87957500D01*
X129970000Y-89070000D02*
X129970000Y-89820000D01*
X129970000Y-89820000D02*
X127775000Y-92015000D01*
X127775000Y-92015000D02*
X127430000Y-92015000D01*
X132510000Y-89070000D02*
X131460000Y-89070000D01*
X131460000Y-89070000D02*
X129970000Y-89070000D01*
X126660000Y-91245000D02*
X127430000Y-92015000D01*
X127430000Y-92015000D02*
X127795000Y-92380000D01*
X122350000Y-89070000D02*
X122350000Y-89820000D01*
X122350000Y-89820000D02*
X124545000Y-92015000D01*
X124545000Y-92015000D02*
X127430000Y-92015000D01*
X119810000Y-89070000D02*
X120860000Y-89070000D01*
X120860000Y-89070000D02*
X122350000Y-89070000D01*
X127795000Y-92380000D02*
X127795000Y-93920000D01*
X126660000Y-89120000D02*
X126660000Y-91245000D01*
X127795000Y-93920000D02*
X128545000Y-93920000D01*
X128545000Y-93920000D02*
X128700000Y-94075000D01*
X128700000Y-94075000D02*
X128700000Y-95257919D01*
X128700000Y-95257919D02*
X128700000Y-96460000D01*
X121450000Y-92000000D02*
X122800000Y-92000000D01*
X122800000Y-92000000D02*
X124500000Y-93700000D01*
X124500000Y-93700000D02*
X124500000Y-94000000D01*
X121450000Y-94000000D02*
X121450000Y-92000000D01*
X125795000Y-93920000D02*
X125795000Y-94571000D01*
X125795000Y-94571000D02*
X126160000Y-94936000D01*
X126160000Y-89120000D02*
X126160000Y-89995314D01*
X126160000Y-89995314D02*
X126034990Y-90120324D01*
X124570000Y-93920000D02*
X125795000Y-93920000D01*
X132510000Y-86070000D02*
X133780000Y-86070000D01*
X133780000Y-86070000D02*
X134185000Y-86070000D01*
X127160000Y-89120000D02*
X127785000Y-89120000D01*
X127785000Y-89120000D02*
X128065000Y-88840000D01*
X134415000Y-86300000D02*
X134415000Y-95190000D01*
X134185000Y-86070000D02*
X134415000Y-86300000D01*
X134415000Y-95190000D02*
X133145000Y-96460000D01*
X133145000Y-96460000D02*
X131240000Y-96460000D01*
X129970000Y-86070000D02*
X132510000Y-86070000D01*
X127160000Y-86020000D02*
X129920000Y-86020000D01*
X129920000Y-86020000D02*
X129970000Y-86070000D01*
X131875000Y-86300000D02*
X132105000Y-86070000D01*
X132105000Y-86070000D02*
X132510000Y-86070000D01*
X131240000Y-85665000D02*
X131875000Y-86300000D01*
X130605000Y-86300000D02*
X130375000Y-86070000D01*
X130375000Y-86070000D02*
X129970000Y-86070000D01*
X131240000Y-85665000D02*
X130605000Y-86300000D01*
X124760000Y-90099514D02*
X124784978Y-90124492D01*
X125160000Y-89295000D02*
X124760000Y-89695000D01*
X124760000Y-89695000D02*
X124760000Y-90099514D01*
X125160000Y-89120000D02*
X125160000Y-89295000D01*
X125160000Y-89120000D02*
X125160000Y-89205000D01*
X125660000Y-89570310D02*
X125409988Y-89820322D01*
X125409988Y-89820322D02*
X125409988Y-90629988D01*
X125660000Y-89120000D02*
X125660000Y-89570310D01*
X125409988Y-90629988D02*
X125525000Y-90745000D01*
X127345000Y-82490000D02*
X127345000Y-84590000D01*
X127345000Y-84590000D02*
X126660000Y-85275000D01*
X126660000Y-85275000D02*
X126660000Y-85445000D01*
X126660000Y-85445000D02*
X126660000Y-86020000D01*
X124975000Y-82490000D02*
X124975000Y-84590000D01*
X124975000Y-84590000D02*
X125660000Y-85275000D01*
X125660000Y-85275000D02*
X125660000Y-85445000D01*
X125660000Y-86020000D02*
X125660000Y-85445000D01*
X119550000Y-94000000D02*
X120500000Y-94000000D01*
X119550000Y-92000000D02*
X120500000Y-92000000D01*
D22*
G36*
X124118946Y-80630882D02*
X124389865Y-80631118D01*
X124501480Y-80585000D01*
X125525000Y-80585000D01*
X125525000Y-84522000D01*
X125535006Y-84571410D01*
X125562197Y-84611803D01*
X125779000Y-84828606D01*
X125779000Y-85390894D01*
X125739135Y-85416546D01*
X125659020Y-85533798D01*
X125588454Y-85424135D01*
X125461134Y-85337141D01*
X125310000Y-85306536D01*
X125292449Y-85306536D01*
X123747000Y-84202644D01*
X123747000Y-80585000D01*
X124008451Y-80585000D01*
X124118946Y-80630882D01*
X124118946Y-80630882D01*
G37*
X124118946Y-80630882D02*
X124389865Y-80631118D01*
X124501480Y-80585000D01*
X125525000Y-80585000D01*
X125525000Y-84522000D01*
X125535006Y-84571410D01*
X125562197Y-84611803D01*
X125779000Y-84828606D01*
X125779000Y-85390894D01*
X125739135Y-85416546D01*
X125659020Y-85533798D01*
X125588454Y-85424135D01*
X125461134Y-85337141D01*
X125310000Y-85306536D01*
X125292449Y-85306536D01*
X123747000Y-84202644D01*
X123747000Y-80585000D01*
X124008451Y-80585000D01*
X124118946Y-80630882D01*
G36*
X127928946Y-80630882D02*
X128199865Y-80631118D01*
X128311480Y-80585000D01*
X128573000Y-80585000D01*
X128573000Y-84202644D01*
X127027551Y-85306536D01*
X127010000Y-85306536D01*
X126868810Y-85333103D01*
X126739135Y-85416546D01*
X126659020Y-85533798D01*
X126588454Y-85424135D01*
X126541000Y-85391711D01*
X126541000Y-84828606D01*
X126757803Y-84611803D01*
X126785666Y-84569789D01*
X126795000Y-84522000D01*
X126795000Y-80585000D01*
X127818451Y-80585000D01*
X127928946Y-80630882D01*
X127928946Y-80630882D01*
G37*
X127928946Y-80630882D02*
X128199865Y-80631118D01*
X128311480Y-80585000D01*
X128573000Y-80585000D01*
X128573000Y-84202644D01*
X127027551Y-85306536D01*
X127010000Y-85306536D01*
X126868810Y-85333103D01*
X126739135Y-85416546D01*
X126659020Y-85533798D01*
X126588454Y-85424135D01*
X126541000Y-85391711D01*
X126541000Y-84828606D01*
X126757803Y-84611803D01*
X126785666Y-84569789D01*
X126795000Y-84522000D01*
X126795000Y-80585000D01*
X127818451Y-80585000D01*
X127928946Y-80630882D01*
G36*
X125017000Y-85734069D02*
X125017000Y-86400841D01*
X124988370Y-86406536D01*
X124920000Y-86406536D01*
X124811244Y-86427000D01*
X119040000Y-86427000D01*
X119015224Y-86429440D01*
X118823882Y-86467500D01*
X118778100Y-86486464D01*
X118615889Y-86594851D01*
X118580851Y-86629889D01*
X118472464Y-86792100D01*
X118453500Y-86837882D01*
X118415440Y-87029224D01*
X118413000Y-87054000D01*
X118413000Y-95325000D01*
X118415440Y-95349776D01*
X118453500Y-95541118D01*
X118472464Y-95586900D01*
X118580851Y-95749111D01*
X118615889Y-95784149D01*
X118778100Y-95892536D01*
X118823882Y-95911500D01*
X119015224Y-95949560D01*
X119040000Y-95952000D01*
X121202491Y-95952000D01*
X121356790Y-95982692D01*
X121476991Y-96063009D01*
X121557308Y-96183210D01*
X121588000Y-96337509D01*
X121588000Y-96582491D01*
X121557308Y-96736790D01*
X121476991Y-96856991D01*
X121356790Y-96937308D01*
X121202491Y-96968000D01*
X117782509Y-96968000D01*
X117628210Y-96937308D01*
X117508009Y-96856991D01*
X117427692Y-96736790D01*
X117397000Y-96582491D01*
X117397000Y-85542509D01*
X117427692Y-85388210D01*
X117508009Y-85268009D01*
X117628210Y-85187692D01*
X117782509Y-85157000D01*
X124209103Y-85157000D01*
X125017000Y-85734069D01*
X125017000Y-85734069D01*
G37*
X125017000Y-85734069D02*
X125017000Y-86400841D01*
X124988370Y-86406536D01*
X124920000Y-86406536D01*
X124811244Y-86427000D01*
X119040000Y-86427000D01*
X119015224Y-86429440D01*
X118823882Y-86467500D01*
X118778100Y-86486464D01*
X118615889Y-86594851D01*
X118580851Y-86629889D01*
X118472464Y-86792100D01*
X118453500Y-86837882D01*
X118415440Y-87029224D01*
X118413000Y-87054000D01*
X118413000Y-95325000D01*
X118415440Y-95349776D01*
X118453500Y-95541118D01*
X118472464Y-95586900D01*
X118580851Y-95749111D01*
X118615889Y-95784149D01*
X118778100Y-95892536D01*
X118823882Y-95911500D01*
X119015224Y-95949560D01*
X119040000Y-95952000D01*
X121202491Y-95952000D01*
X121356790Y-95982692D01*
X121476991Y-96063009D01*
X121557308Y-96183210D01*
X121588000Y-96337509D01*
X121588000Y-96582491D01*
X121557308Y-96736790D01*
X121476991Y-96856991D01*
X121356790Y-96937308D01*
X121202491Y-96968000D01*
X117782509Y-96968000D01*
X117628210Y-96937308D01*
X117508009Y-96856991D01*
X117427692Y-96736790D01*
X117397000Y-96582491D01*
X117397000Y-85542509D01*
X117427692Y-85388210D01*
X117508009Y-85268009D01*
X117628210Y-85187692D01*
X117782509Y-85157000D01*
X124209103Y-85157000D01*
X125017000Y-85734069D01*
G36*
X134691790Y-85187692D02*
X134811991Y-85268009D01*
X134892308Y-85388210D01*
X134923000Y-85542509D01*
X134923000Y-96582491D01*
X134892308Y-96736790D01*
X134811991Y-96856991D01*
X134691790Y-96937308D01*
X134537491Y-96968000D01*
X131117509Y-96968000D01*
X130963210Y-96937308D01*
X130843009Y-96856991D01*
X130762692Y-96736790D01*
X130732000Y-96582491D01*
X130732000Y-96337509D01*
X130762692Y-96183210D01*
X130843009Y-96063009D01*
X130963210Y-95982692D01*
X131117509Y-95952000D01*
X133280000Y-95952000D01*
X133304776Y-95949560D01*
X133496118Y-95911500D01*
X133541900Y-95892536D01*
X133704111Y-95784149D01*
X133739149Y-95749111D01*
X133847536Y-95586900D01*
X133866500Y-95541118D01*
X133904560Y-95349776D01*
X133907000Y-95325000D01*
X133907000Y-87171826D01*
X133904617Y-87147338D01*
X133867438Y-86958137D01*
X133848905Y-86912802D01*
X133742895Y-86751738D01*
X133708586Y-86716788D01*
X133549513Y-86607815D01*
X133504529Y-86588446D01*
X133316049Y-86547770D01*
X133291609Y-86544934D01*
X127553373Y-86438671D01*
X127551134Y-86437141D01*
X127400000Y-86406536D01*
X127303000Y-86406536D01*
X127303000Y-85734069D01*
X128110897Y-85157000D01*
X134537491Y-85157000D01*
X134691790Y-85187692D01*
X134691790Y-85187692D01*
G37*
X134691790Y-85187692D02*
X134811991Y-85268009D01*
X134892308Y-85388210D01*
X134923000Y-85542509D01*
X134923000Y-96582491D01*
X134892308Y-96736790D01*
X134811991Y-96856991D01*
X134691790Y-96937308D01*
X134537491Y-96968000D01*
X131117509Y-96968000D01*
X130963210Y-96937308D01*
X130843009Y-96856991D01*
X130762692Y-96736790D01*
X130732000Y-96582491D01*
X130732000Y-96337509D01*
X130762692Y-96183210D01*
X130843009Y-96063009D01*
X130963210Y-95982692D01*
X131117509Y-95952000D01*
X133280000Y-95952000D01*
X133304776Y-95949560D01*
X133496118Y-95911500D01*
X133541900Y-95892536D01*
X133704111Y-95784149D01*
X133739149Y-95749111D01*
X133847536Y-95586900D01*
X133866500Y-95541118D01*
X133904560Y-95349776D01*
X133907000Y-95325000D01*
X133907000Y-87171826D01*
X133904617Y-87147338D01*
X133867438Y-86958137D01*
X133848905Y-86912802D01*
X133742895Y-86751738D01*
X133708586Y-86716788D01*
X133549513Y-86607815D01*
X133504529Y-86588446D01*
X133316049Y-86547770D01*
X133291609Y-86544934D01*
X127553373Y-86438671D01*
X127551134Y-86437141D01*
X127400000Y-86406536D01*
X127303000Y-86406536D01*
X127303000Y-85734069D01*
X128110897Y-85157000D01*
X134537491Y-85157000D01*
X134691790Y-85187692D01*
G36*
X136069000Y-97457552D02*
X135979826Y-97905857D01*
X135749927Y-98249925D01*
X135405856Y-98479827D01*
X134957552Y-98569000D01*
X117542448Y-98569000D01*
X117094143Y-98479826D01*
X116750075Y-98249927D01*
X116520173Y-97905856D01*
X116431000Y-97457552D01*
X116431000Y-83543917D01*
X116476707Y-83654537D01*
X117370756Y-84550148D01*
X117648869Y-84665630D01*
X117504329Y-84694381D01*
X117366984Y-84751271D01*
X117204773Y-84859658D01*
X117099658Y-84964773D01*
X116991271Y-85126984D01*
X116934381Y-85264329D01*
X116896321Y-85455671D01*
X116889000Y-85530000D01*
X116889000Y-96595000D01*
X116896321Y-96669329D01*
X116934381Y-96860671D01*
X116991271Y-96998016D01*
X117099658Y-97160227D01*
X117204773Y-97265342D01*
X117366984Y-97373729D01*
X117504329Y-97430619D01*
X117695671Y-97468679D01*
X117770000Y-97476000D01*
X119884068Y-97476000D01*
X119951546Y-97580865D01*
X120078866Y-97667859D01*
X120230000Y-97698464D01*
X121930000Y-97698464D01*
X122071190Y-97671897D01*
X122200865Y-97588454D01*
X122287859Y-97461134D01*
X122318464Y-97310000D01*
X122318464Y-96435883D01*
X122389000Y-96435883D01*
X122389000Y-96484117D01*
X122482704Y-96955200D01*
X122749552Y-97354565D01*
X123148917Y-97621413D01*
X123620000Y-97715117D01*
X124091083Y-97621413D01*
X124490448Y-97354565D01*
X124757296Y-96955200D01*
X124851000Y-96484117D01*
X124851000Y-96435883D01*
X124757296Y-95964800D01*
X124490448Y-95565435D01*
X124091083Y-95298587D01*
X123620000Y-95204883D01*
X123148917Y-95298587D01*
X122749552Y-95565435D01*
X122482704Y-95964800D01*
X122389000Y-96435883D01*
X122318464Y-96435883D01*
X122318464Y-95897128D01*
X122957796Y-95257796D01*
X123003096Y-95190000D01*
X123067483Y-95093638D01*
X123083453Y-95013353D01*
X123091190Y-95011897D01*
X123220865Y-94928454D01*
X123307859Y-94801134D01*
X123338464Y-94650000D01*
X123338464Y-93350000D01*
X123316226Y-93231818D01*
X123761536Y-93677128D01*
X123761536Y-94650000D01*
X123788103Y-94791190D01*
X123871546Y-94920865D01*
X123998866Y-95007859D01*
X124150000Y-95038464D01*
X124850000Y-95038464D01*
X124991190Y-95011897D01*
X125120865Y-94928454D01*
X125140108Y-94900291D01*
X125143866Y-94902859D01*
X125295000Y-94933464D01*
X125441872Y-94933464D01*
X125478969Y-94970561D01*
X125478882Y-95070865D01*
X125582339Y-95321252D01*
X125611411Y-95350375D01*
X125289552Y-95565435D01*
X125022704Y-95964800D01*
X124929000Y-96435883D01*
X124929000Y-96484117D01*
X125022704Y-96955200D01*
X125289552Y-97354565D01*
X125688917Y-97621413D01*
X126160000Y-97715117D01*
X126631083Y-97621413D01*
X127030448Y-97354565D01*
X127297296Y-96955200D01*
X127391000Y-96484117D01*
X127391000Y-96435883D01*
X127297296Y-95964800D01*
X127030448Y-95565435D01*
X126708729Y-95350468D01*
X126736987Y-95322259D01*
X126840882Y-95072054D01*
X126841118Y-94801135D01*
X126737661Y-94550748D01*
X126683464Y-94496457D01*
X126683464Y-93295000D01*
X126656897Y-93153810D01*
X126573454Y-93024135D01*
X126446134Y-92937141D01*
X126295000Y-92906536D01*
X125295000Y-92906536D01*
X125153810Y-92933103D01*
X125030684Y-93012332D01*
X125001134Y-92992141D01*
X124850000Y-92961536D01*
X124477128Y-92961536D01*
X123157796Y-91642204D01*
X122993638Y-91532517D01*
X122800000Y-91494000D01*
X122188464Y-91494000D01*
X122188464Y-91350000D01*
X122161897Y-91208810D01*
X122078454Y-91079135D01*
X121951134Y-90992141D01*
X121800000Y-90961536D01*
X121100000Y-90961536D01*
X120958810Y-90988103D01*
X120829135Y-91071546D01*
X120742141Y-91198866D01*
X120711536Y-91350000D01*
X120711536Y-91350461D01*
X120636054Y-91319118D01*
X120365135Y-91318882D01*
X120288464Y-91350562D01*
X120288464Y-91350000D01*
X120261897Y-91208810D01*
X120178454Y-91079135D01*
X120051134Y-90992141D01*
X119900000Y-90961536D01*
X119200000Y-90961536D01*
X119058810Y-90988103D01*
X118929135Y-91071546D01*
X118921000Y-91083452D01*
X118921000Y-90259357D01*
X124103860Y-90259357D01*
X124207317Y-90509744D01*
X124398719Y-90701479D01*
X124648924Y-90805374D01*
X124843947Y-90805544D01*
X124843882Y-90879865D01*
X124947339Y-91130252D01*
X125138741Y-91321987D01*
X125388946Y-91425882D01*
X125659865Y-91426118D01*
X125910252Y-91322661D01*
X126101987Y-91131259D01*
X126205882Y-90881054D01*
X126205964Y-90786522D01*
X126420242Y-90697985D01*
X126611977Y-90506583D01*
X126715872Y-90256378D01*
X126716108Y-89985459D01*
X126666000Y-89864187D01*
X126666000Y-89614003D01*
X126731546Y-89715865D01*
X126858866Y-89802859D01*
X127010000Y-89833464D01*
X127310000Y-89833464D01*
X127451190Y-89806897D01*
X127580865Y-89723454D01*
X127647452Y-89626000D01*
X127785000Y-89626000D01*
X127978638Y-89587483D01*
X128078119Y-89521012D01*
X128199865Y-89521118D01*
X128450252Y-89417661D01*
X128641987Y-89226259D01*
X128745882Y-88976054D01*
X128746118Y-88705135D01*
X128642661Y-88454748D01*
X128451259Y-88263013D01*
X128201054Y-88159118D01*
X127930135Y-88158882D01*
X127679748Y-88262339D01*
X127488013Y-88453741D01*
X127487442Y-88455116D01*
X127461134Y-88437141D01*
X127310000Y-88406536D01*
X127010000Y-88406536D01*
X126868810Y-88433103D01*
X126739135Y-88516546D01*
X126659020Y-88633798D01*
X126588454Y-88524135D01*
X126461134Y-88437141D01*
X126310000Y-88406536D01*
X126010000Y-88406536D01*
X125906330Y-88426043D01*
X125810000Y-88406536D01*
X125510000Y-88406536D01*
X125406330Y-88426043D01*
X125310000Y-88406536D01*
X125010000Y-88406536D01*
X124868810Y-88433103D01*
X124739135Y-88516546D01*
X124652141Y-88643866D01*
X124621536Y-88795000D01*
X124621536Y-89117872D01*
X124402204Y-89337204D01*
X124292517Y-89501362D01*
X124254669Y-89691636D01*
X124207991Y-89738233D01*
X124104096Y-89988438D01*
X124103860Y-90259357D01*
X118921000Y-90259357D01*
X118921000Y-87091524D01*
X118936954Y-87011319D01*
X118961133Y-86975133D01*
X118991643Y-86954747D01*
X119010000Y-86958464D01*
X120610000Y-86958464D01*
X120734699Y-86935000D01*
X121434130Y-86935000D01*
X121550000Y-86958464D01*
X123150000Y-86958464D01*
X123274699Y-86935000D01*
X124898000Y-86935000D01*
X124972329Y-86927679D01*
X125163671Y-86889619D01*
X125203275Y-86873214D01*
X125249770Y-86904983D01*
X125398000Y-86935000D01*
X125906000Y-86935000D01*
X126044477Y-86908944D01*
X126161427Y-86833689D01*
X126265770Y-86904983D01*
X126414000Y-86935000D01*
X126922000Y-86935000D01*
X127060477Y-86908944D01*
X127107049Y-86878976D01*
X127143888Y-86894838D01*
X127332368Y-86935514D01*
X127405688Y-86944023D01*
X133245131Y-87052160D01*
X133324181Y-87069220D01*
X133359722Y-87093568D01*
X133383407Y-87129553D01*
X133399000Y-87208904D01*
X133399000Y-95287476D01*
X133383046Y-95367681D01*
X133358867Y-95403867D01*
X133322681Y-95428046D01*
X133242476Y-95444000D01*
X131928708Y-95444000D01*
X131711083Y-95298587D01*
X131240000Y-95204883D01*
X130768917Y-95298587D01*
X130369552Y-95565435D01*
X130102704Y-95964800D01*
X130009000Y-96435883D01*
X130009000Y-96484117D01*
X130102704Y-96955200D01*
X130369552Y-97354565D01*
X130768917Y-97621413D01*
X131240000Y-97715117D01*
X131711083Y-97621413D01*
X131928708Y-97476000D01*
X134550000Y-97476000D01*
X134624329Y-97468679D01*
X134815671Y-97430619D01*
X134953016Y-97373729D01*
X135115227Y-97265342D01*
X135220342Y-97160227D01*
X135328729Y-96998016D01*
X135385619Y-96860671D01*
X135423679Y-96669329D01*
X135431000Y-96595000D01*
X135431000Y-85530000D01*
X135423679Y-85455671D01*
X135385619Y-85264329D01*
X135328729Y-85126984D01*
X135220342Y-84964773D01*
X135115227Y-84859658D01*
X134953016Y-84751271D01*
X134815671Y-84694381D01*
X134672163Y-84665836D01*
X134944537Y-84553293D01*
X135840148Y-83659244D01*
X136069000Y-83108107D01*
X136069000Y-97457552D01*
X136069000Y-97457552D01*
G37*
X136069000Y-97457552D02*
X135979826Y-97905857D01*
X135749927Y-98249925D01*
X135405856Y-98479827D01*
X134957552Y-98569000D01*
X117542448Y-98569000D01*
X117094143Y-98479826D01*
X116750075Y-98249927D01*
X116520173Y-97905856D01*
X116431000Y-97457552D01*
X116431000Y-83543917D01*
X116476707Y-83654537D01*
X117370756Y-84550148D01*
X117648869Y-84665630D01*
X117504329Y-84694381D01*
X117366984Y-84751271D01*
X117204773Y-84859658D01*
X117099658Y-84964773D01*
X116991271Y-85126984D01*
X116934381Y-85264329D01*
X116896321Y-85455671D01*
X116889000Y-85530000D01*
X116889000Y-96595000D01*
X116896321Y-96669329D01*
X116934381Y-96860671D01*
X116991271Y-96998016D01*
X117099658Y-97160227D01*
X117204773Y-97265342D01*
X117366984Y-97373729D01*
X117504329Y-97430619D01*
X117695671Y-97468679D01*
X117770000Y-97476000D01*
X119884068Y-97476000D01*
X119951546Y-97580865D01*
X120078866Y-97667859D01*
X120230000Y-97698464D01*
X121930000Y-97698464D01*
X122071190Y-97671897D01*
X122200865Y-97588454D01*
X122287859Y-97461134D01*
X122318464Y-97310000D01*
X122318464Y-96435883D01*
X122389000Y-96435883D01*
X122389000Y-96484117D01*
X122482704Y-96955200D01*
X122749552Y-97354565D01*
X123148917Y-97621413D01*
X123620000Y-97715117D01*
X124091083Y-97621413D01*
X124490448Y-97354565D01*
X124757296Y-96955200D01*
X124851000Y-96484117D01*
X124851000Y-96435883D01*
X124757296Y-95964800D01*
X124490448Y-95565435D01*
X124091083Y-95298587D01*
X123620000Y-95204883D01*
X123148917Y-95298587D01*
X122749552Y-95565435D01*
X122482704Y-95964800D01*
X122389000Y-96435883D01*
X122318464Y-96435883D01*
X122318464Y-95897128D01*
X122957796Y-95257796D01*
X123003096Y-95190000D01*
X123067483Y-95093638D01*
X123083453Y-95013353D01*
X123091190Y-95011897D01*
X123220865Y-94928454D01*
X123307859Y-94801134D01*
X123338464Y-94650000D01*
X123338464Y-93350000D01*
X123316226Y-93231818D01*
X123761536Y-93677128D01*
X123761536Y-94650000D01*
X123788103Y-94791190D01*
X123871546Y-94920865D01*
X123998866Y-95007859D01*
X124150000Y-95038464D01*
X124850000Y-95038464D01*
X124991190Y-95011897D01*
X125120865Y-94928454D01*
X125140108Y-94900291D01*
X125143866Y-94902859D01*
X125295000Y-94933464D01*
X125441872Y-94933464D01*
X125478969Y-94970561D01*
X125478882Y-95070865D01*
X125582339Y-95321252D01*
X125611411Y-95350375D01*
X125289552Y-95565435D01*
X125022704Y-95964800D01*
X124929000Y-96435883D01*
X124929000Y-96484117D01*
X125022704Y-96955200D01*
X125289552Y-97354565D01*
X125688917Y-97621413D01*
X126160000Y-97715117D01*
X126631083Y-97621413D01*
X127030448Y-97354565D01*
X127297296Y-96955200D01*
X127391000Y-96484117D01*
X127391000Y-96435883D01*
X127297296Y-95964800D01*
X127030448Y-95565435D01*
X126708729Y-95350468D01*
X126736987Y-95322259D01*
X126840882Y-95072054D01*
X126841118Y-94801135D01*
X126737661Y-94550748D01*
X126683464Y-94496457D01*
X126683464Y-93295000D01*
X126656897Y-93153810D01*
X126573454Y-93024135D01*
X126446134Y-92937141D01*
X126295000Y-92906536D01*
X125295000Y-92906536D01*
X125153810Y-92933103D01*
X125030684Y-93012332D01*
X125001134Y-92992141D01*
X124850000Y-92961536D01*
X124477128Y-92961536D01*
X123157796Y-91642204D01*
X122993638Y-91532517D01*
X122800000Y-91494000D01*
X122188464Y-91494000D01*
X122188464Y-91350000D01*
X122161897Y-91208810D01*
X122078454Y-91079135D01*
X121951134Y-90992141D01*
X121800000Y-90961536D01*
X121100000Y-90961536D01*
X120958810Y-90988103D01*
X120829135Y-91071546D01*
X120742141Y-91198866D01*
X120711536Y-91350000D01*
X120711536Y-91350461D01*
X120636054Y-91319118D01*
X120365135Y-91318882D01*
X120288464Y-91350562D01*
X120288464Y-91350000D01*
X120261897Y-91208810D01*
X120178454Y-91079135D01*
X120051134Y-90992141D01*
X119900000Y-90961536D01*
X119200000Y-90961536D01*
X119058810Y-90988103D01*
X118929135Y-91071546D01*
X118921000Y-91083452D01*
X118921000Y-90259357D01*
X124103860Y-90259357D01*
X124207317Y-90509744D01*
X124398719Y-90701479D01*
X124648924Y-90805374D01*
X124843947Y-90805544D01*
X124843882Y-90879865D01*
X124947339Y-91130252D01*
X125138741Y-91321987D01*
X125388946Y-91425882D01*
X125659865Y-91426118D01*
X125910252Y-91322661D01*
X126101987Y-91131259D01*
X126205882Y-90881054D01*
X126205964Y-90786522D01*
X126420242Y-90697985D01*
X126611977Y-90506583D01*
X126715872Y-90256378D01*
X126716108Y-89985459D01*
X126666000Y-89864187D01*
X126666000Y-89614003D01*
X126731546Y-89715865D01*
X126858866Y-89802859D01*
X127010000Y-89833464D01*
X127310000Y-89833464D01*
X127451190Y-89806897D01*
X127580865Y-89723454D01*
X127647452Y-89626000D01*
X127785000Y-89626000D01*
X127978638Y-89587483D01*
X128078119Y-89521012D01*
X128199865Y-89521118D01*
X128450252Y-89417661D01*
X128641987Y-89226259D01*
X128745882Y-88976054D01*
X128746118Y-88705135D01*
X128642661Y-88454748D01*
X128451259Y-88263013D01*
X128201054Y-88159118D01*
X127930135Y-88158882D01*
X127679748Y-88262339D01*
X127488013Y-88453741D01*
X127487442Y-88455116D01*
X127461134Y-88437141D01*
X127310000Y-88406536D01*
X127010000Y-88406536D01*
X126868810Y-88433103D01*
X126739135Y-88516546D01*
X126659020Y-88633798D01*
X126588454Y-88524135D01*
X126461134Y-88437141D01*
X126310000Y-88406536D01*
X126010000Y-88406536D01*
X125906330Y-88426043D01*
X125810000Y-88406536D01*
X125510000Y-88406536D01*
X125406330Y-88426043D01*
X125310000Y-88406536D01*
X125010000Y-88406536D01*
X124868810Y-88433103D01*
X124739135Y-88516546D01*
X124652141Y-88643866D01*
X124621536Y-88795000D01*
X124621536Y-89117872D01*
X124402204Y-89337204D01*
X124292517Y-89501362D01*
X124254669Y-89691636D01*
X124207991Y-89738233D01*
X124104096Y-89988438D01*
X124103860Y-90259357D01*
X118921000Y-90259357D01*
X118921000Y-87091524D01*
X118936954Y-87011319D01*
X118961133Y-86975133D01*
X118991643Y-86954747D01*
X119010000Y-86958464D01*
X120610000Y-86958464D01*
X120734699Y-86935000D01*
X121434130Y-86935000D01*
X121550000Y-86958464D01*
X123150000Y-86958464D01*
X123274699Y-86935000D01*
X124898000Y-86935000D01*
X124972329Y-86927679D01*
X125163671Y-86889619D01*
X125203275Y-86873214D01*
X125249770Y-86904983D01*
X125398000Y-86935000D01*
X125906000Y-86935000D01*
X126044477Y-86908944D01*
X126161427Y-86833689D01*
X126265770Y-86904983D01*
X126414000Y-86935000D01*
X126922000Y-86935000D01*
X127060477Y-86908944D01*
X127107049Y-86878976D01*
X127143888Y-86894838D01*
X127332368Y-86935514D01*
X127405688Y-86944023D01*
X133245131Y-87052160D01*
X133324181Y-87069220D01*
X133359722Y-87093568D01*
X133383407Y-87129553D01*
X133399000Y-87208904D01*
X133399000Y-95287476D01*
X133383046Y-95367681D01*
X133358867Y-95403867D01*
X133322681Y-95428046D01*
X133242476Y-95444000D01*
X131928708Y-95444000D01*
X131711083Y-95298587D01*
X131240000Y-95204883D01*
X130768917Y-95298587D01*
X130369552Y-95565435D01*
X130102704Y-95964800D01*
X130009000Y-96435883D01*
X130009000Y-96484117D01*
X130102704Y-96955200D01*
X130369552Y-97354565D01*
X130768917Y-97621413D01*
X131240000Y-97715117D01*
X131711083Y-97621413D01*
X131928708Y-97476000D01*
X134550000Y-97476000D01*
X134624329Y-97468679D01*
X134815671Y-97430619D01*
X134953016Y-97373729D01*
X135115227Y-97265342D01*
X135220342Y-97160227D01*
X135328729Y-96998016D01*
X135385619Y-96860671D01*
X135423679Y-96669329D01*
X135431000Y-96595000D01*
X135431000Y-85530000D01*
X135423679Y-85455671D01*
X135385619Y-85264329D01*
X135328729Y-85126984D01*
X135220342Y-84964773D01*
X135115227Y-84859658D01*
X134953016Y-84751271D01*
X134815671Y-84694381D01*
X134672163Y-84665836D01*
X134944537Y-84553293D01*
X135840148Y-83659244D01*
X136069000Y-83108107D01*
X136069000Y-97457552D01*
G36*
X130449852Y-80050756D02*
X129964554Y-81219484D01*
X129963450Y-82484964D01*
X130446707Y-83654537D01*
X131340756Y-84550148D01*
X131578818Y-84649000D01*
X128822097Y-84649000D01*
X128921452Y-84578032D01*
X129050983Y-84416230D01*
X129081000Y-84268000D01*
X129081000Y-80458000D01*
X129054944Y-80319523D01*
X128973104Y-80192340D01*
X128848230Y-80107017D01*
X128700000Y-80077000D01*
X123620000Y-80077000D01*
X123481523Y-80103056D01*
X123354340Y-80184896D01*
X123269017Y-80309770D01*
X123239000Y-80458000D01*
X123239000Y-84268000D01*
X123295376Y-84467449D01*
X123398548Y-84578032D01*
X123497903Y-84649000D01*
X120742908Y-84649000D01*
X120974537Y-84553293D01*
X121870148Y-83659244D01*
X122355446Y-82490516D01*
X122356550Y-81225036D01*
X121873293Y-80055463D01*
X121249919Y-79431000D01*
X131070691Y-79431000D01*
X130449852Y-80050756D01*
X130449852Y-80050756D01*
G37*
X130449852Y-80050756D02*
X129964554Y-81219484D01*
X129963450Y-82484964D01*
X130446707Y-83654537D01*
X131340756Y-84550148D01*
X131578818Y-84649000D01*
X128822097Y-84649000D01*
X128921452Y-84578032D01*
X129050983Y-84416230D01*
X129081000Y-84268000D01*
X129081000Y-80458000D01*
X129054944Y-80319523D01*
X128973104Y-80192340D01*
X128848230Y-80107017D01*
X128700000Y-80077000D01*
X123620000Y-80077000D01*
X123481523Y-80103056D01*
X123354340Y-80184896D01*
X123269017Y-80309770D01*
X123239000Y-80458000D01*
X123239000Y-84268000D01*
X123295376Y-84467449D01*
X123398548Y-84578032D01*
X123497903Y-84649000D01*
X120742908Y-84649000D01*
X120974537Y-84553293D01*
X121870148Y-83659244D01*
X122355446Y-82490516D01*
X122356550Y-81225036D01*
X121873293Y-80055463D01*
X121249919Y-79431000D01*
X131070691Y-79431000D01*
X130449852Y-80050756D01*
M02*
