G04 #@! TF.FileFunction,Soldermask,Bot*
%FSLAX46Y46*%
G04 Gerber Fmt 4.6, Leading zero omitted, Abs format (unit mm)*
G04 Created by KiCad (PCBNEW 4.0.5) date Sunday, 09. April 2017 'u32' 16:32:30*
%MOMM*%
%LPD*%
G01*
G04 APERTURE LIST*
%ADD10C,0.100000*%
%ADD11C,5.600000*%
%ADD12R,1.700000X1.700000*%
%ADD13O,1.700000X1.700000*%
%ADD14R,0.970000X1.270000*%
%ADD15C,0.600000*%
G04 APERTURE END LIST*
D10*
X136500000Y-80500000D02*
G75*
G03X135000000Y-79000000I-1500000J0D01*
G01*
X135000000Y-99000000D02*
G75*
G03X136500000Y-97500000I0J1500000D01*
G01*
X116000000Y-97500000D02*
G75*
G03X117500000Y-99000000I1500000J0D01*
G01*
X117500000Y-79000000D02*
G75*
G03X116000000Y-80500000I0J-1500000D01*
G01*
X116000000Y-80500000D02*
X116000000Y-97500000D01*
X135000000Y-79000000D02*
X117500000Y-79000000D01*
X136500000Y-97500000D02*
X136500000Y-80500000D01*
X117500000Y-99000000D02*
X135000000Y-99000000D01*
D11*
X133145000Y-81855000D03*
X119175000Y-81855000D03*
D12*
X121080000Y-96460000D03*
D13*
X123620000Y-96460000D03*
X126160000Y-96460000D03*
X128700000Y-96460000D03*
X131240000Y-96460000D03*
D14*
X122340000Y-93920000D03*
X123620000Y-93920000D03*
X122345000Y-92015000D03*
X123625000Y-92015000D03*
D15*
X135685000Y-85030000D03*
X135685000Y-86935000D03*
X135685000Y-88840000D03*
X135685000Y-90745000D03*
X135685000Y-92650000D03*
X135685000Y-94555000D03*
X135685000Y-96460000D03*
X135500000Y-98000000D03*
X129970000Y-79950000D03*
X128065000Y-79950000D03*
X122350000Y-79950000D03*
X124255000Y-79950000D03*
X126160000Y-79950000D03*
X133780000Y-98365000D03*
X131875000Y-98365000D03*
X129970000Y-98365000D03*
X128065000Y-98365000D03*
X126160000Y-98365000D03*
X124255000Y-98365000D03*
X122350000Y-98365000D03*
X120445000Y-98365000D03*
X118540000Y-98365000D03*
X116635000Y-85030000D03*
X116635000Y-86935000D03*
X116635000Y-88840000D03*
X116635000Y-90745000D03*
X116635000Y-92650000D03*
X116635000Y-94555000D03*
X116635000Y-96460000D03*
X117000000Y-98000000D03*
X133145000Y-90110000D03*
X131875000Y-90110000D03*
X130605000Y-90110000D03*
X129335000Y-90110000D03*
X122985000Y-90110000D03*
X121715000Y-90110000D03*
X120445000Y-90110000D03*
X119175000Y-90110000D03*
X125540000Y-87957500D03*
X126780000Y-87957500D03*
X126780000Y-87182500D03*
X125540000Y-87182500D03*
X126160000Y-94936000D03*
X126034990Y-90120324D03*
X133780000Y-86070000D03*
X128065000Y-88840000D03*
X124784978Y-90124492D03*
X125525000Y-90745000D03*
X120500000Y-94000000D03*
X120500000Y-92000000D03*
M02*
