M48
;DRILL file {KiCad 4.0.5} date Sunday, 09. April 2017 'u32' 16:32:35
;FORMAT={-:-/ absolute / metric / decimal}
FMAT,2
METRIC,TZ
T1C0.400
T2C1.000
T3C3.200
%
G90
G05
M71
T1
X116.635Y-85.03
X116.635Y-86.935
X116.635Y-88.84
X116.635Y-90.745
X116.635Y-92.65
X116.635Y-94.555
X116.635Y-96.46
X117.Y-98.
X118.54Y-98.365
X119.175Y-90.11
X120.445Y-90.11
X120.445Y-98.365
X120.5Y-92.
X120.5Y-94.
X121.715Y-90.11
X122.35Y-79.95
X122.35Y-98.365
X122.985Y-90.11
X124.255Y-79.95
X124.255Y-98.365
X124.785Y-90.124
X125.525Y-90.745
X125.54Y-87.182
X125.54Y-87.957
X126.035Y-90.12
X126.16Y-79.95
X126.16Y-94.936
X126.16Y-98.365
X126.78Y-87.182
X126.78Y-87.957
X128.065Y-79.95
X128.065Y-88.84
X128.065Y-98.365
X129.335Y-90.11
X129.97Y-79.95
X129.97Y-98.365
X130.605Y-90.11
X131.875Y-90.11
X131.875Y-98.365
X133.145Y-90.11
X133.78Y-86.07
X133.78Y-98.365
X135.5Y-98.
X135.685Y-85.03
X135.685Y-86.935
X135.685Y-88.84
X135.685Y-90.745
X135.685Y-92.65
X135.685Y-94.555
X135.685Y-96.46
T2
X121.08Y-96.46
X123.62Y-96.46
X126.16Y-96.46
X128.7Y-96.46
X131.24Y-96.46
T3
X119.175Y-81.855
X133.145Y-81.855
T0
M30
