G04 #@! TF.FileFunction,Legend,Bot*
%FSLAX46Y46*%
G04 Gerber Fmt 4.6, Leading zero omitted, Abs format (unit mm)*
G04 Created by KiCad (PCBNEW 4.0.5) date Sunday, 09. April 2017 'u32' 16:32:30*
%MOMM*%
%LPD*%
G01*
G04 APERTURE LIST*
%ADD10C,0.100000*%
%ADD11C,0.150000*%
%ADD12C,0.120000*%
%ADD13C,0.010000*%
G04 APERTURE END LIST*
D10*
X136500000Y-80500000D02*
G75*
G03X135000000Y-79000000I-1500000J0D01*
G01*
X135000000Y-99000000D02*
G75*
G03X136500000Y-97500000I0J1500000D01*
G01*
X116000000Y-97500000D02*
G75*
G03X117500000Y-99000000I1500000J0D01*
G01*
X117500000Y-79000000D02*
G75*
G03X116000000Y-80500000I0J-1500000D01*
G01*
X129302857Y-81102857D02*
X129188571Y-81140952D01*
X129150476Y-81179048D01*
X129112381Y-81255238D01*
X129112381Y-81369524D01*
X129150476Y-81445714D01*
X129188571Y-81483810D01*
X129264762Y-81521905D01*
X129569524Y-81521905D01*
X129569524Y-80721905D01*
X129302857Y-80721905D01*
X129226667Y-80760000D01*
X129188571Y-80798095D01*
X129150476Y-80874286D01*
X129150476Y-80950476D01*
X129188571Y-81026667D01*
X129226667Y-81064762D01*
X129302857Y-81102857D01*
X129569524Y-81102857D01*
X128426667Y-80988571D02*
X128426667Y-81521905D01*
X128769524Y-80988571D02*
X128769524Y-81407619D01*
X128731429Y-81483810D01*
X128655238Y-81521905D01*
X128540952Y-81521905D01*
X128464762Y-81483810D01*
X128426667Y-81445714D01*
X127702857Y-81483810D02*
X127779047Y-81521905D01*
X127931428Y-81521905D01*
X128007619Y-81483810D01*
X128045714Y-81445714D01*
X128083809Y-81369524D01*
X128083809Y-81140952D01*
X128045714Y-81064762D01*
X128007619Y-81026667D01*
X127931428Y-80988571D01*
X127779047Y-80988571D01*
X127702857Y-81026667D01*
X127360000Y-81521905D02*
X127360000Y-80721905D01*
X127283809Y-81217143D02*
X127055238Y-81521905D01*
X127055238Y-80988571D02*
X127360000Y-81293333D01*
X126712381Y-81217143D02*
X126102857Y-81217143D01*
X125455238Y-81102857D02*
X125340952Y-81140952D01*
X125302857Y-81179048D01*
X125264762Y-81255238D01*
X125264762Y-81369524D01*
X125302857Y-81445714D01*
X125340952Y-81483810D01*
X125417143Y-81521905D01*
X125721905Y-81521905D01*
X125721905Y-80721905D01*
X125455238Y-80721905D01*
X125379048Y-80760000D01*
X125340952Y-80798095D01*
X125302857Y-80874286D01*
X125302857Y-80950476D01*
X125340952Y-81026667D01*
X125379048Y-81064762D01*
X125455238Y-81102857D01*
X125721905Y-81102857D01*
X124807619Y-81521905D02*
X124883810Y-81483810D01*
X124921905Y-81445714D01*
X124960000Y-81369524D01*
X124960000Y-81140952D01*
X124921905Y-81064762D01*
X124883810Y-81026667D01*
X124807619Y-80988571D01*
X124693333Y-80988571D01*
X124617143Y-81026667D01*
X124579048Y-81064762D01*
X124540952Y-81140952D01*
X124540952Y-81369524D01*
X124579048Y-81445714D01*
X124617143Y-81483810D01*
X124693333Y-81521905D01*
X124807619Y-81521905D01*
X124083809Y-81521905D02*
X124160000Y-81483810D01*
X124198095Y-81445714D01*
X124236190Y-81369524D01*
X124236190Y-81140952D01*
X124198095Y-81064762D01*
X124160000Y-81026667D01*
X124083809Y-80988571D01*
X123969523Y-80988571D01*
X123893333Y-81026667D01*
X123855238Y-81064762D01*
X123817142Y-81140952D01*
X123817142Y-81369524D01*
X123855238Y-81445714D01*
X123893333Y-81483810D01*
X123969523Y-81521905D01*
X124083809Y-81521905D01*
X123512380Y-81483810D02*
X123436190Y-81521905D01*
X123283809Y-81521905D01*
X123207618Y-81483810D01*
X123169523Y-81407619D01*
X123169523Y-81369524D01*
X123207618Y-81293333D01*
X123283809Y-81255238D01*
X123398094Y-81255238D01*
X123474285Y-81217143D01*
X123512380Y-81140952D01*
X123512380Y-81102857D01*
X123474285Y-81026667D01*
X123398094Y-80988571D01*
X123283809Y-80988571D01*
X123207618Y-81026667D01*
X122940952Y-80988571D02*
X122636190Y-80988571D01*
X122826666Y-80721905D02*
X122826666Y-81407619D01*
X122788571Y-81483810D01*
X122712380Y-81521905D01*
X122636190Y-81521905D01*
X129493333Y-82821905D02*
X129950476Y-82821905D01*
X129721905Y-82821905D02*
X129721905Y-82021905D01*
X129798095Y-82136190D01*
X129874286Y-82212381D01*
X129950476Y-82250476D01*
X129112381Y-82783810D02*
X129112381Y-82821905D01*
X129150476Y-82898095D01*
X129188571Y-82936190D01*
X128655238Y-82364762D02*
X128731429Y-82326667D01*
X128769524Y-82288571D01*
X128807619Y-82212381D01*
X128807619Y-82174286D01*
X128769524Y-82098095D01*
X128731429Y-82060000D01*
X128655238Y-82021905D01*
X128502857Y-82021905D01*
X128426667Y-82060000D01*
X128388571Y-82098095D01*
X128350476Y-82174286D01*
X128350476Y-82212381D01*
X128388571Y-82288571D01*
X128426667Y-82326667D01*
X128502857Y-82364762D01*
X128655238Y-82364762D01*
X128731429Y-82402857D01*
X128769524Y-82440952D01*
X128807619Y-82517143D01*
X128807619Y-82669524D01*
X128769524Y-82745714D01*
X128731429Y-82783810D01*
X128655238Y-82821905D01*
X128502857Y-82821905D01*
X128426667Y-82783810D01*
X128388571Y-82745714D01*
X128350476Y-82669524D01*
X128350476Y-82517143D01*
X128388571Y-82440952D01*
X128426667Y-82402857D01*
X128502857Y-82364762D01*
X128007619Y-82517143D02*
X127398095Y-82517143D01*
X126636190Y-82021905D02*
X127017143Y-82021905D01*
X127055238Y-82402857D01*
X127017143Y-82364762D01*
X126940952Y-82326667D01*
X126750476Y-82326667D01*
X126674286Y-82364762D01*
X126636190Y-82402857D01*
X126598095Y-82479048D01*
X126598095Y-82669524D01*
X126636190Y-82745714D01*
X126674286Y-82783810D01*
X126750476Y-82821905D01*
X126940952Y-82821905D01*
X127017143Y-82783810D01*
X127055238Y-82745714D01*
X126217143Y-82783810D02*
X126217143Y-82821905D01*
X126255238Y-82898095D01*
X126293333Y-82936190D01*
X125493333Y-82021905D02*
X125874286Y-82021905D01*
X125912381Y-82402857D01*
X125874286Y-82364762D01*
X125798095Y-82326667D01*
X125607619Y-82326667D01*
X125531429Y-82364762D01*
X125493333Y-82402857D01*
X125455238Y-82479048D01*
X125455238Y-82669524D01*
X125493333Y-82745714D01*
X125531429Y-82783810D01*
X125607619Y-82821905D01*
X125798095Y-82821905D01*
X125874286Y-82783810D01*
X125912381Y-82745714D01*
X125226667Y-82021905D02*
X124960000Y-82821905D01*
X124693333Y-82021905D01*
X123931429Y-82021905D02*
X123664762Y-82821905D01*
X123398095Y-82021905D01*
X123131429Y-82821905D02*
X123131429Y-82288571D01*
X123131429Y-82021905D02*
X123169524Y-82060000D01*
X123131429Y-82098095D01*
X123093334Y-82060000D01*
X123131429Y-82021905D01*
X123131429Y-82098095D01*
X122750477Y-82288571D02*
X122750477Y-82821905D01*
X122750477Y-82364762D02*
X122712382Y-82326667D01*
X122636191Y-82288571D01*
X122521905Y-82288571D01*
X122445715Y-82326667D01*
X122407620Y-82402857D01*
X122407620Y-82821905D01*
X128940952Y-83321905D02*
X128445714Y-83321905D01*
X128712381Y-83626667D01*
X128598095Y-83626667D01*
X128521905Y-83664762D01*
X128483809Y-83702857D01*
X128445714Y-83779048D01*
X128445714Y-83969524D01*
X128483809Y-84045714D01*
X128521905Y-84083810D01*
X128598095Y-84121905D01*
X128826667Y-84121905D01*
X128902857Y-84083810D01*
X128940952Y-84045714D01*
X128064762Y-84083810D02*
X128064762Y-84121905D01*
X128102857Y-84198095D01*
X128140952Y-84236190D01*
X127798095Y-83321905D02*
X127302857Y-83321905D01*
X127569524Y-83626667D01*
X127455238Y-83626667D01*
X127379048Y-83664762D01*
X127340952Y-83702857D01*
X127302857Y-83779048D01*
X127302857Y-83969524D01*
X127340952Y-84045714D01*
X127379048Y-84083810D01*
X127455238Y-84121905D01*
X127683810Y-84121905D01*
X127760000Y-84083810D01*
X127798095Y-84045714D01*
X127074286Y-83321905D02*
X126807619Y-84121905D01*
X126540952Y-83321905D01*
X125779048Y-83321905D02*
X125512381Y-84121905D01*
X125245714Y-83321905D01*
X124864762Y-84121905D02*
X124940953Y-84083810D01*
X124979048Y-84045714D01*
X125017143Y-83969524D01*
X125017143Y-83740952D01*
X124979048Y-83664762D01*
X124940953Y-83626667D01*
X124864762Y-83588571D01*
X124750476Y-83588571D01*
X124674286Y-83626667D01*
X124636191Y-83664762D01*
X124598095Y-83740952D01*
X124598095Y-83969524D01*
X124636191Y-84045714D01*
X124674286Y-84083810D01*
X124750476Y-84121905D01*
X124864762Y-84121905D01*
X123912381Y-83588571D02*
X123912381Y-84121905D01*
X124255238Y-83588571D02*
X124255238Y-84007619D01*
X124217143Y-84083810D01*
X124140952Y-84121905D01*
X124026666Y-84121905D01*
X123950476Y-84083810D01*
X123912381Y-84045714D01*
X123645714Y-83588571D02*
X123340952Y-83588571D01*
X123531428Y-83321905D02*
X123531428Y-84007619D01*
X123493333Y-84083810D01*
X123417142Y-84121905D01*
X123340952Y-84121905D01*
X129321905Y-84964762D02*
X129398096Y-84926667D01*
X129436191Y-84888571D01*
X129474286Y-84812381D01*
X129474286Y-84774286D01*
X129436191Y-84698095D01*
X129398096Y-84660000D01*
X129321905Y-84621905D01*
X129169524Y-84621905D01*
X129093334Y-84660000D01*
X129055238Y-84698095D01*
X129017143Y-84774286D01*
X129017143Y-84812381D01*
X129055238Y-84888571D01*
X129093334Y-84926667D01*
X129169524Y-84964762D01*
X129321905Y-84964762D01*
X129398096Y-85002857D01*
X129436191Y-85040952D01*
X129474286Y-85117143D01*
X129474286Y-85269524D01*
X129436191Y-85345714D01*
X129398096Y-85383810D01*
X129321905Y-85421905D01*
X129169524Y-85421905D01*
X129093334Y-85383810D01*
X129055238Y-85345714D01*
X129017143Y-85269524D01*
X129017143Y-85117143D01*
X129055238Y-85040952D01*
X129093334Y-85002857D01*
X129169524Y-84964762D01*
X128521905Y-84621905D02*
X128445714Y-84621905D01*
X128369524Y-84660000D01*
X128331429Y-84698095D01*
X128293333Y-84774286D01*
X128255238Y-84926667D01*
X128255238Y-85117143D01*
X128293333Y-85269524D01*
X128331429Y-85345714D01*
X128369524Y-85383810D01*
X128445714Y-85421905D01*
X128521905Y-85421905D01*
X128598095Y-85383810D01*
X128636191Y-85345714D01*
X128674286Y-85269524D01*
X128712381Y-85117143D01*
X128712381Y-84926667D01*
X128674286Y-84774286D01*
X128636191Y-84698095D01*
X128598095Y-84660000D01*
X128521905Y-84621905D01*
X127760000Y-84621905D02*
X127683809Y-84621905D01*
X127607619Y-84660000D01*
X127569524Y-84698095D01*
X127531428Y-84774286D01*
X127493333Y-84926667D01*
X127493333Y-85117143D01*
X127531428Y-85269524D01*
X127569524Y-85345714D01*
X127607619Y-85383810D01*
X127683809Y-85421905D01*
X127760000Y-85421905D01*
X127836190Y-85383810D01*
X127874286Y-85345714D01*
X127912381Y-85269524D01*
X127950476Y-85117143D01*
X127950476Y-84926667D01*
X127912381Y-84774286D01*
X127874286Y-84698095D01*
X127836190Y-84660000D01*
X127760000Y-84621905D01*
X127150476Y-85421905D02*
X127150476Y-84888571D01*
X127150476Y-84964762D02*
X127112381Y-84926667D01*
X127036190Y-84888571D01*
X126921904Y-84888571D01*
X126845714Y-84926667D01*
X126807619Y-85002857D01*
X126807619Y-85421905D01*
X126807619Y-85002857D02*
X126769523Y-84926667D01*
X126693333Y-84888571D01*
X126579047Y-84888571D01*
X126502857Y-84926667D01*
X126464762Y-85002857D01*
X126464762Y-85421905D01*
X126121904Y-85193333D02*
X125740952Y-85193333D01*
X126198095Y-85421905D02*
X125931428Y-84621905D01*
X125664761Y-85421905D01*
X124788571Y-85421905D02*
X124788571Y-84621905D01*
X124293333Y-85421905D02*
X124369524Y-85383810D01*
X124407619Y-85345714D01*
X124445714Y-85269524D01*
X124445714Y-85040952D01*
X124407619Y-84964762D01*
X124369524Y-84926667D01*
X124293333Y-84888571D01*
X124179047Y-84888571D01*
X124102857Y-84926667D01*
X124064762Y-84964762D01*
X124026666Y-85040952D01*
X124026666Y-85269524D01*
X124064762Y-85345714D01*
X124102857Y-85383810D01*
X124179047Y-85421905D01*
X124293333Y-85421905D01*
X123340952Y-84888571D02*
X123340952Y-85421905D01*
X123683809Y-84888571D02*
X123683809Y-85307619D01*
X123645714Y-85383810D01*
X123569523Y-85421905D01*
X123455237Y-85421905D01*
X123379047Y-85383810D01*
X123340952Y-85345714D01*
X123074285Y-84888571D02*
X122769523Y-84888571D01*
X122959999Y-84621905D02*
X122959999Y-85307619D01*
X122921904Y-85383810D01*
X122845713Y-85421905D01*
X122769523Y-85421905D01*
X130502858Y-86188571D02*
X130312382Y-86721905D01*
X130121906Y-86188571D01*
X129398096Y-86721905D02*
X129855239Y-86721905D01*
X129626668Y-86721905D02*
X129626668Y-85921905D01*
X129702858Y-86036190D01*
X129779049Y-86112381D01*
X129855239Y-86150476D01*
X128445715Y-86721905D02*
X128445715Y-85921905D01*
X128445715Y-86226667D02*
X128369524Y-86188571D01*
X128217143Y-86188571D01*
X128140953Y-86226667D01*
X128102858Y-86264762D01*
X128064762Y-86340952D01*
X128064762Y-86569524D01*
X128102858Y-86645714D01*
X128140953Y-86683810D01*
X128217143Y-86721905D01*
X128369524Y-86721905D01*
X128445715Y-86683810D01*
X127798095Y-86188571D02*
X127607619Y-86721905D01*
X127417143Y-86188571D02*
X127607619Y-86721905D01*
X127683810Y-86912381D01*
X127721905Y-86950476D01*
X127798095Y-86988571D01*
X126007619Y-86340952D02*
X126045714Y-86302857D01*
X126121904Y-86264762D01*
X126198095Y-86264762D01*
X126274285Y-86302857D01*
X126312381Y-86340952D01*
X126350476Y-86417143D01*
X126350476Y-86493333D01*
X126312381Y-86569524D01*
X126274285Y-86607619D01*
X126198095Y-86645714D01*
X126121904Y-86645714D01*
X126045714Y-86607619D01*
X126007619Y-86569524D01*
X126007619Y-86264762D02*
X126007619Y-86569524D01*
X125969523Y-86607619D01*
X125931428Y-86607619D01*
X125855238Y-86569524D01*
X125817143Y-86493333D01*
X125817143Y-86302857D01*
X125893333Y-86188571D01*
X126007619Y-86112381D01*
X126160000Y-86074286D01*
X126312381Y-86112381D01*
X126426666Y-86188571D01*
X126502857Y-86302857D01*
X126540952Y-86455238D01*
X126502857Y-86607619D01*
X126426666Y-86721905D01*
X126312381Y-86798095D01*
X126160000Y-86836190D01*
X126007619Y-86798095D01*
X125893333Y-86721905D01*
X125474286Y-86721905D02*
X125474286Y-85921905D01*
X125398095Y-86417143D02*
X125169524Y-86721905D01*
X125169524Y-86188571D02*
X125474286Y-86493333D01*
X124483810Y-86188571D02*
X124483810Y-86721905D01*
X124826667Y-86188571D02*
X124826667Y-86607619D01*
X124788572Y-86683810D01*
X124712381Y-86721905D01*
X124598095Y-86721905D01*
X124521905Y-86683810D01*
X124483810Y-86645714D01*
X123760000Y-86188571D02*
X123760000Y-86836190D01*
X123798095Y-86912381D01*
X123836190Y-86950476D01*
X123912381Y-86988571D01*
X124026666Y-86988571D01*
X124102857Y-86950476D01*
X123760000Y-86683810D02*
X123836190Y-86721905D01*
X123988571Y-86721905D01*
X124064762Y-86683810D01*
X124102857Y-86645714D01*
X124140952Y-86569524D01*
X124140952Y-86340952D01*
X124102857Y-86264762D01*
X124064762Y-86226667D01*
X123988571Y-86188571D01*
X123836190Y-86188571D01*
X123760000Y-86226667D01*
X123074285Y-86683810D02*
X123150475Y-86721905D01*
X123302856Y-86721905D01*
X123379047Y-86683810D01*
X123417142Y-86607619D01*
X123417142Y-86302857D01*
X123379047Y-86226667D01*
X123302856Y-86188571D01*
X123150475Y-86188571D01*
X123074285Y-86226667D01*
X123036190Y-86302857D01*
X123036190Y-86379048D01*
X123417142Y-86455238D01*
X122579047Y-86721905D02*
X122655238Y-86683810D01*
X122693333Y-86607619D01*
X122693333Y-85921905D01*
X122312380Y-85998095D02*
X122274285Y-85960000D01*
X122198094Y-85921905D01*
X122007618Y-85921905D01*
X121931428Y-85960000D01*
X121893332Y-85998095D01*
X121855237Y-86074286D01*
X121855237Y-86150476D01*
X121893332Y-86264762D01*
X122350475Y-86721905D01*
X121855237Y-86721905D01*
D11*
X130207858Y-90562381D02*
X130207858Y-89562381D01*
X129826905Y-89562381D01*
X129731667Y-89610000D01*
X129684048Y-89657619D01*
X129636429Y-89752857D01*
X129636429Y-89895714D01*
X129684048Y-89990952D01*
X129731667Y-90038571D01*
X129826905Y-90086190D01*
X130207858Y-90086190D01*
X128779286Y-89895714D02*
X128779286Y-90562381D01*
X129207858Y-89895714D02*
X129207858Y-90419524D01*
X129160239Y-90514762D01*
X129065001Y-90562381D01*
X128922143Y-90562381D01*
X128826905Y-90514762D01*
X128779286Y-90467143D01*
X128160239Y-90562381D02*
X128255477Y-90514762D01*
X128303096Y-90419524D01*
X128303096Y-89562381D01*
X127636429Y-90562381D02*
X127731667Y-90514762D01*
X127779286Y-90419524D01*
X127779286Y-89562381D01*
X126826904Y-89895714D02*
X126826904Y-90562381D01*
X127255476Y-89895714D02*
X127255476Y-90419524D01*
X127207857Y-90514762D01*
X127112619Y-90562381D01*
X126969761Y-90562381D01*
X126874523Y-90514762D01*
X126826904Y-90467143D01*
X126350714Y-89895714D02*
X126350714Y-90895714D01*
X126350714Y-89943333D02*
X126255476Y-89895714D01*
X126064999Y-89895714D01*
X125969761Y-89943333D01*
X125922142Y-89990952D01*
X125874523Y-90086190D01*
X125874523Y-90371905D01*
X125922142Y-90467143D01*
X125969761Y-90514762D01*
X126064999Y-90562381D01*
X126255476Y-90562381D01*
X126350714Y-90514762D01*
X131556667Y-92419762D02*
X131413810Y-92467381D01*
X131175714Y-92467381D01*
X131080476Y-92419762D01*
X131032857Y-92372143D01*
X130985238Y-92276905D01*
X130985238Y-92181667D01*
X131032857Y-92086429D01*
X131080476Y-92038810D01*
X131175714Y-91991190D01*
X131366191Y-91943571D01*
X131461429Y-91895952D01*
X131509048Y-91848333D01*
X131556667Y-91753095D01*
X131556667Y-91657857D01*
X131509048Y-91562619D01*
X131461429Y-91515000D01*
X131366191Y-91467381D01*
X131128095Y-91467381D01*
X130985238Y-91515000D01*
X130366191Y-91991190D02*
X130366191Y-92467381D01*
X130699524Y-91467381D02*
X130366191Y-91991190D01*
X130032857Y-91467381D01*
X129699524Y-92467381D02*
X129699524Y-91467381D01*
X129128095Y-92467381D01*
X129128095Y-91467381D01*
X128080476Y-92372143D02*
X128128095Y-92419762D01*
X128270952Y-92467381D01*
X128366190Y-92467381D01*
X128509048Y-92419762D01*
X128604286Y-92324524D01*
X128651905Y-92229286D01*
X128699524Y-92038810D01*
X128699524Y-91895952D01*
X128651905Y-91705476D01*
X128604286Y-91610238D01*
X128509048Y-91515000D01*
X128366190Y-91467381D01*
X128270952Y-91467381D01*
X128128095Y-91515000D01*
X128080476Y-91562619D01*
X126937619Y-91419762D02*
X127794762Y-92705476D01*
X126604286Y-92467381D02*
X126604286Y-91467381D01*
X126223333Y-91467381D01*
X126128095Y-91515000D01*
X126080476Y-91562619D01*
X126032857Y-91657857D01*
X126032857Y-91800714D01*
X126080476Y-91895952D01*
X126128095Y-91943571D01*
X126223333Y-91991190D01*
X126604286Y-91991190D01*
X125651905Y-92419762D02*
X125509048Y-92467381D01*
X125270952Y-92467381D01*
X125175714Y-92419762D01*
X125128095Y-92372143D01*
X125080476Y-92276905D01*
X125080476Y-92181667D01*
X125128095Y-92086429D01*
X125175714Y-92038810D01*
X125270952Y-91991190D01*
X125461429Y-91943571D01*
X125556667Y-91895952D01*
X125604286Y-91848333D01*
X125651905Y-91753095D01*
X125651905Y-91657857D01*
X125604286Y-91562619D01*
X125556667Y-91515000D01*
X125461429Y-91467381D01*
X125223333Y-91467381D01*
X125080476Y-91515000D01*
X126604286Y-93848571D02*
X126270952Y-93848571D01*
X126128095Y-94372381D02*
X126604286Y-94372381D01*
X126604286Y-93372381D01*
X126128095Y-93372381D01*
X125699524Y-94372381D02*
X125699524Y-93372381D01*
X125128095Y-94372381D01*
X125128095Y-93372381D01*
D10*
X116000000Y-80500000D02*
X116000000Y-97500000D01*
X135000000Y-79000000D02*
X117500000Y-79000000D01*
X136500000Y-97500000D02*
X136500000Y-80500000D01*
X117500000Y-99000000D02*
X135000000Y-99000000D01*
D12*
X121710000Y-93030000D02*
X124250000Y-93030000D01*
X124250000Y-94810000D02*
X121710000Y-94810000D01*
X124250000Y-94810000D02*
X124250000Y-93030000D01*
X121710000Y-93030000D02*
X121710000Y-94810000D01*
X121715000Y-91125000D02*
X124255000Y-91125000D01*
X124255000Y-92905000D02*
X121715000Y-92905000D01*
X124255000Y-92905000D02*
X124255000Y-91125000D01*
X121715000Y-91125000D02*
X121715000Y-92905000D01*
D13*
G36*
X117580082Y-91400256D02*
X117552432Y-91344799D01*
X117501520Y-91295852D01*
X117482662Y-91282371D01*
X117457985Y-91267686D01*
X117431184Y-91258158D01*
X117395413Y-91252707D01*
X117343831Y-91250253D01*
X117275733Y-91249714D01*
X117182412Y-91252148D01*
X117112343Y-91260606D01*
X117060069Y-91276826D01*
X117020131Y-91302546D01*
X116987071Y-91339503D01*
X116985114Y-91342218D01*
X116965092Y-91378640D01*
X116955185Y-91422498D01*
X116952743Y-91478276D01*
X116952743Y-91568952D01*
X116864717Y-91568990D01*
X116815692Y-91569834D01*
X116786935Y-91574976D01*
X116769689Y-91588413D01*
X116755192Y-91614142D01*
X116752231Y-91620321D01*
X116738352Y-91649236D01*
X116729586Y-91671624D01*
X116728829Y-91688271D01*
X116738977Y-91699964D01*
X116762927Y-91707490D01*
X116803574Y-91711634D01*
X116863814Y-91713185D01*
X116946545Y-91712929D01*
X117054661Y-91711651D01*
X117087000Y-91711252D01*
X117198476Y-91709815D01*
X117271397Y-91708528D01*
X117271397Y-91569029D01*
X117209501Y-91568245D01*
X117169003Y-91564760D01*
X117142292Y-91556876D01*
X117121756Y-91542895D01*
X117111740Y-91533403D01*
X117082433Y-91494596D01*
X117080048Y-91460237D01*
X117104250Y-91424784D01*
X117105143Y-91423886D01*
X117123847Y-91409461D01*
X117149268Y-91400687D01*
X117188416Y-91396261D01*
X117248303Y-91394882D01*
X117261570Y-91394857D01*
X117344099Y-91398188D01*
X117401309Y-91409031D01*
X117436234Y-91428660D01*
X117451906Y-91458350D01*
X117453486Y-91475509D01*
X117446074Y-91516234D01*
X117421670Y-91544168D01*
X117377020Y-91560983D01*
X117308870Y-91568350D01*
X117271397Y-91569029D01*
X117271397Y-91708528D01*
X117284755Y-91708292D01*
X117349667Y-91706323D01*
X117397042Y-91703550D01*
X117430710Y-91699612D01*
X117454502Y-91694151D01*
X117472247Y-91686808D01*
X117487776Y-91677223D01*
X117493619Y-91673113D01*
X117548815Y-91618595D01*
X117580110Y-91549664D01*
X117588835Y-91469928D01*
X117580082Y-91400256D01*
X117580082Y-91400256D01*
G37*
X117580082Y-91400256D02*
X117552432Y-91344799D01*
X117501520Y-91295852D01*
X117482662Y-91282371D01*
X117457985Y-91267686D01*
X117431184Y-91258158D01*
X117395413Y-91252707D01*
X117343831Y-91250253D01*
X117275733Y-91249714D01*
X117182412Y-91252148D01*
X117112343Y-91260606D01*
X117060069Y-91276826D01*
X117020131Y-91302546D01*
X116987071Y-91339503D01*
X116985114Y-91342218D01*
X116965092Y-91378640D01*
X116955185Y-91422498D01*
X116952743Y-91478276D01*
X116952743Y-91568952D01*
X116864717Y-91568990D01*
X116815692Y-91569834D01*
X116786935Y-91574976D01*
X116769689Y-91588413D01*
X116755192Y-91614142D01*
X116752231Y-91620321D01*
X116738352Y-91649236D01*
X116729586Y-91671624D01*
X116728829Y-91688271D01*
X116738977Y-91699964D01*
X116762927Y-91707490D01*
X116803574Y-91711634D01*
X116863814Y-91713185D01*
X116946545Y-91712929D01*
X117054661Y-91711651D01*
X117087000Y-91711252D01*
X117198476Y-91709815D01*
X117271397Y-91708528D01*
X117271397Y-91569029D01*
X117209501Y-91568245D01*
X117169003Y-91564760D01*
X117142292Y-91556876D01*
X117121756Y-91542895D01*
X117111740Y-91533403D01*
X117082433Y-91494596D01*
X117080048Y-91460237D01*
X117104250Y-91424784D01*
X117105143Y-91423886D01*
X117123847Y-91409461D01*
X117149268Y-91400687D01*
X117188416Y-91396261D01*
X117248303Y-91394882D01*
X117261570Y-91394857D01*
X117344099Y-91398188D01*
X117401309Y-91409031D01*
X117436234Y-91428660D01*
X117451906Y-91458350D01*
X117453486Y-91475509D01*
X117446074Y-91516234D01*
X117421670Y-91544168D01*
X117377020Y-91560983D01*
X117308870Y-91568350D01*
X117271397Y-91569029D01*
X117271397Y-91708528D01*
X117284755Y-91708292D01*
X117349667Y-91706323D01*
X117397042Y-91703550D01*
X117430710Y-91699612D01*
X117454502Y-91694151D01*
X117472247Y-91686808D01*
X117487776Y-91677223D01*
X117493619Y-91673113D01*
X117548815Y-91618595D01*
X117580110Y-91549664D01*
X117588835Y-91469928D01*
X117580082Y-91400256D01*
G36*
X117572220Y-90283907D02*
X117545277Y-90237328D01*
X117518534Y-90204943D01*
X117490516Y-90181258D01*
X117456252Y-90164941D01*
X117410773Y-90154661D01*
X117349108Y-90149086D01*
X117266289Y-90146884D01*
X117206754Y-90146629D01*
X116987609Y-90146629D01*
X116959956Y-90208314D01*
X116932303Y-90270000D01*
X117172330Y-90277257D01*
X117261972Y-90280256D01*
X117327038Y-90283402D01*
X117371974Y-90287299D01*
X117401230Y-90292553D01*
X117419252Y-90299769D01*
X117430489Y-90309550D01*
X117432921Y-90312688D01*
X117451917Y-90360239D01*
X117444400Y-90408303D01*
X117424457Y-90436914D01*
X117410325Y-90448553D01*
X117391780Y-90456609D01*
X117363666Y-90461729D01*
X117320827Y-90464559D01*
X117258105Y-90465744D01*
X117192739Y-90465943D01*
X117110732Y-90465982D01*
X117052684Y-90467386D01*
X117013535Y-90472086D01*
X116988220Y-90482013D01*
X116971677Y-90499097D01*
X116958844Y-90525268D01*
X116945509Y-90560225D01*
X116930993Y-90598404D01*
X117188611Y-90593859D01*
X117281481Y-90592029D01*
X117350111Y-90589888D01*
X117399289Y-90586819D01*
X117433802Y-90582206D01*
X117458438Y-90575432D01*
X117477984Y-90565881D01*
X117495230Y-90554366D01*
X117550320Y-90498810D01*
X117582178Y-90431020D01*
X117589809Y-90357287D01*
X117572220Y-90283907D01*
X117572220Y-90283907D01*
G37*
X117572220Y-90283907D02*
X117545277Y-90237328D01*
X117518534Y-90204943D01*
X117490516Y-90181258D01*
X117456252Y-90164941D01*
X117410773Y-90154661D01*
X117349108Y-90149086D01*
X117266289Y-90146884D01*
X117206754Y-90146629D01*
X116987609Y-90146629D01*
X116959956Y-90208314D01*
X116932303Y-90270000D01*
X117172330Y-90277257D01*
X117261972Y-90280256D01*
X117327038Y-90283402D01*
X117371974Y-90287299D01*
X117401230Y-90292553D01*
X117419252Y-90299769D01*
X117430489Y-90309550D01*
X117432921Y-90312688D01*
X117451917Y-90360239D01*
X117444400Y-90408303D01*
X117424457Y-90436914D01*
X117410325Y-90448553D01*
X117391780Y-90456609D01*
X117363666Y-90461729D01*
X117320827Y-90464559D01*
X117258105Y-90465744D01*
X117192739Y-90465943D01*
X117110732Y-90465982D01*
X117052684Y-90467386D01*
X117013535Y-90472086D01*
X116988220Y-90482013D01*
X116971677Y-90499097D01*
X116958844Y-90525268D01*
X116945509Y-90560225D01*
X116930993Y-90598404D01*
X117188611Y-90593859D01*
X117281481Y-90592029D01*
X117350111Y-90589888D01*
X117399289Y-90586819D01*
X117433802Y-90582206D01*
X117458438Y-90575432D01*
X117477984Y-90565881D01*
X117495230Y-90554366D01*
X117550320Y-90498810D01*
X117582178Y-90431020D01*
X117589809Y-90357287D01*
X117572220Y-90283907D01*
G36*
X117578038Y-91958885D02*
X117542267Y-91890855D01*
X117484699Y-91840649D01*
X117447688Y-91822815D01*
X117392118Y-91808937D01*
X117321904Y-91801833D01*
X117245273Y-91801160D01*
X117170448Y-91806573D01*
X117105658Y-91817730D01*
X117059127Y-91834286D01*
X117051113Y-91839374D01*
X116991293Y-91899645D01*
X116955465Y-91971231D01*
X116944980Y-92048908D01*
X116961190Y-92127452D01*
X116970908Y-92149311D01*
X117000857Y-92191878D01*
X117040567Y-92229237D01*
X117045603Y-92232768D01*
X117069876Y-92247119D01*
X117095822Y-92256606D01*
X117129978Y-92262210D01*
X117178881Y-92264914D01*
X117249065Y-92265701D01*
X117264800Y-92265714D01*
X117269808Y-92265678D01*
X117269808Y-92120571D01*
X117203570Y-92119727D01*
X117159614Y-92116404D01*
X117131221Y-92109417D01*
X117111675Y-92097584D01*
X117105143Y-92091543D01*
X117080320Y-92056814D01*
X117081452Y-92023097D01*
X117102984Y-91989005D01*
X117125971Y-91968671D01*
X117159522Y-91956629D01*
X117212431Y-91949866D01*
X117218601Y-91949402D01*
X117314487Y-91948248D01*
X117385701Y-91960312D01*
X117431806Y-91985430D01*
X117452365Y-92023440D01*
X117453486Y-92037008D01*
X117447848Y-92072636D01*
X117428314Y-92097006D01*
X117390958Y-92111907D01*
X117331850Y-92119125D01*
X117269808Y-92120571D01*
X117269808Y-92265678D01*
X117339587Y-92265174D01*
X117391841Y-92262904D01*
X117428051Y-92257932D01*
X117454701Y-92249287D01*
X117478278Y-92235995D01*
X117482662Y-92233057D01*
X117541751Y-92183687D01*
X117576053Y-92129891D01*
X117589669Y-92064398D01*
X117590335Y-92042158D01*
X117578038Y-91958885D01*
X117578038Y-91958885D01*
G37*
X117578038Y-91958885D02*
X117542267Y-91890855D01*
X117484699Y-91840649D01*
X117447688Y-91822815D01*
X117392118Y-91808937D01*
X117321904Y-91801833D01*
X117245273Y-91801160D01*
X117170448Y-91806573D01*
X117105658Y-91817730D01*
X117059127Y-91834286D01*
X117051113Y-91839374D01*
X116991293Y-91899645D01*
X116955465Y-91971231D01*
X116944980Y-92048908D01*
X116961190Y-92127452D01*
X116970908Y-92149311D01*
X117000857Y-92191878D01*
X117040567Y-92229237D01*
X117045603Y-92232768D01*
X117069876Y-92247119D01*
X117095822Y-92256606D01*
X117129978Y-92262210D01*
X117178881Y-92264914D01*
X117249065Y-92265701D01*
X117264800Y-92265714D01*
X117269808Y-92265678D01*
X117269808Y-92120571D01*
X117203570Y-92119727D01*
X117159614Y-92116404D01*
X117131221Y-92109417D01*
X117111675Y-92097584D01*
X117105143Y-92091543D01*
X117080320Y-92056814D01*
X117081452Y-92023097D01*
X117102984Y-91989005D01*
X117125971Y-91968671D01*
X117159522Y-91956629D01*
X117212431Y-91949866D01*
X117218601Y-91949402D01*
X117314487Y-91948248D01*
X117385701Y-91960312D01*
X117431806Y-91985430D01*
X117452365Y-92023440D01*
X117453486Y-92037008D01*
X117447848Y-92072636D01*
X117428314Y-92097006D01*
X117390958Y-92111907D01*
X117331850Y-92119125D01*
X117269808Y-92120571D01*
X117269808Y-92265678D01*
X117339587Y-92265174D01*
X117391841Y-92262904D01*
X117428051Y-92257932D01*
X117454701Y-92249287D01*
X117478278Y-92235995D01*
X117482662Y-92233057D01*
X117541751Y-92183687D01*
X117576053Y-92129891D01*
X117589669Y-92064398D01*
X117590335Y-92042158D01*
X117578038Y-91958885D01*
G36*
X117568761Y-90831697D02*
X117530265Y-90774473D01*
X117474665Y-90730251D01*
X117403914Y-90703833D01*
X117351838Y-90698490D01*
X117330107Y-90699097D01*
X117313469Y-90704178D01*
X117298563Y-90718145D01*
X117282027Y-90745411D01*
X117260502Y-90790388D01*
X117230626Y-90857489D01*
X117230476Y-90857829D01*
X117202187Y-90919593D01*
X117177067Y-90970241D01*
X117157821Y-91004596D01*
X117147152Y-91017482D01*
X117147066Y-91017486D01*
X117123834Y-91006128D01*
X117098226Y-90979569D01*
X117079779Y-90949077D01*
X117076114Y-90933630D01*
X117088788Y-90891485D01*
X117120529Y-90855192D01*
X117155428Y-90837483D01*
X117181155Y-90820448D01*
X117210454Y-90787078D01*
X117235765Y-90747851D01*
X117249529Y-90713244D01*
X117250286Y-90706007D01*
X117237840Y-90697861D01*
X117206028Y-90697370D01*
X117163134Y-90703357D01*
X117117442Y-90714643D01*
X117077239Y-90730050D01*
X117075678Y-90730829D01*
X117010938Y-90777196D01*
X116966903Y-90837289D01*
X116945289Y-90905535D01*
X116947815Y-90976362D01*
X116976196Y-91044196D01*
X116978192Y-91047212D01*
X117026552Y-91100573D01*
X117089648Y-91135660D01*
X117172613Y-91155078D01*
X117195922Y-91157684D01*
X117305945Y-91162299D01*
X117357252Y-91156767D01*
X117357252Y-91017486D01*
X117325247Y-91015676D01*
X117315907Y-91005778D01*
X117322895Y-90981102D01*
X117339413Y-90942205D01*
X117360119Y-90898725D01*
X117360667Y-90897644D01*
X117380051Y-90860791D01*
X117392987Y-90846000D01*
X117406549Y-90849647D01*
X117424368Y-90865005D01*
X117450155Y-90904077D01*
X117452050Y-90946154D01*
X117433283Y-90983897D01*
X117397085Y-91009966D01*
X117357252Y-91017486D01*
X117357252Y-91156767D01*
X117393973Y-91152806D01*
X117463788Y-91128450D01*
X117512698Y-91094544D01*
X117562122Y-91033347D01*
X117586641Y-90965937D01*
X117588203Y-90897120D01*
X117568761Y-90831697D01*
X117568761Y-90831697D01*
G37*
X117568761Y-90831697D02*
X117530265Y-90774473D01*
X117474665Y-90730251D01*
X117403914Y-90703833D01*
X117351838Y-90698490D01*
X117330107Y-90699097D01*
X117313469Y-90704178D01*
X117298563Y-90718145D01*
X117282027Y-90745411D01*
X117260502Y-90790388D01*
X117230626Y-90857489D01*
X117230476Y-90857829D01*
X117202187Y-90919593D01*
X117177067Y-90970241D01*
X117157821Y-91004596D01*
X117147152Y-91017482D01*
X117147066Y-91017486D01*
X117123834Y-91006128D01*
X117098226Y-90979569D01*
X117079779Y-90949077D01*
X117076114Y-90933630D01*
X117088788Y-90891485D01*
X117120529Y-90855192D01*
X117155428Y-90837483D01*
X117181155Y-90820448D01*
X117210454Y-90787078D01*
X117235765Y-90747851D01*
X117249529Y-90713244D01*
X117250286Y-90706007D01*
X117237840Y-90697861D01*
X117206028Y-90697370D01*
X117163134Y-90703357D01*
X117117442Y-90714643D01*
X117077239Y-90730050D01*
X117075678Y-90730829D01*
X117010938Y-90777196D01*
X116966903Y-90837289D01*
X116945289Y-90905535D01*
X116947815Y-90976362D01*
X116976196Y-91044196D01*
X116978192Y-91047212D01*
X117026552Y-91100573D01*
X117089648Y-91135660D01*
X117172613Y-91155078D01*
X117195922Y-91157684D01*
X117305945Y-91162299D01*
X117357252Y-91156767D01*
X117357252Y-91017486D01*
X117325247Y-91015676D01*
X117315907Y-91005778D01*
X117322895Y-90981102D01*
X117339413Y-90942205D01*
X117360119Y-90898725D01*
X117360667Y-90897644D01*
X117380051Y-90860791D01*
X117392987Y-90846000D01*
X117406549Y-90849647D01*
X117424368Y-90865005D01*
X117450155Y-90904077D01*
X117452050Y-90946154D01*
X117433283Y-90983897D01*
X117397085Y-91009966D01*
X117357252Y-91017486D01*
X117357252Y-91156767D01*
X117393973Y-91152806D01*
X117463788Y-91128450D01*
X117512698Y-91094544D01*
X117562122Y-91033347D01*
X117586641Y-90965937D01*
X117588203Y-90897120D01*
X117568761Y-90831697D01*
G36*
X117648711Y-89624114D02*
X117589387Y-89619861D01*
X117554428Y-89614975D01*
X117539180Y-89608205D01*
X117538985Y-89598298D01*
X117540805Y-89595086D01*
X117553985Y-89552356D01*
X117553215Y-89496773D01*
X117539667Y-89440263D01*
X117522139Y-89404918D01*
X117494139Y-89368679D01*
X117462451Y-89342187D01*
X117422187Y-89324001D01*
X117368457Y-89312678D01*
X117296374Y-89306778D01*
X117201049Y-89304857D01*
X117182763Y-89304823D01*
X116977354Y-89304800D01*
X116961420Y-89350509D01*
X116950580Y-89382973D01*
X116945532Y-89400785D01*
X116945486Y-89401309D01*
X116959172Y-89403063D01*
X116996924Y-89404556D01*
X117053776Y-89405674D01*
X117124766Y-89406303D01*
X117167927Y-89406400D01*
X117253027Y-89406602D01*
X117314019Y-89407642D01*
X117355823Y-89410169D01*
X117383358Y-89414836D01*
X117401544Y-89422293D01*
X117415302Y-89433189D01*
X117421927Y-89439993D01*
X117448625Y-89486728D01*
X117450625Y-89537728D01*
X117428045Y-89583999D01*
X117419893Y-89592556D01*
X117404564Y-89605107D01*
X117386382Y-89613812D01*
X117360091Y-89619369D01*
X117320438Y-89622474D01*
X117262168Y-89623824D01*
X117181827Y-89624114D01*
X116977354Y-89624114D01*
X116961420Y-89669823D01*
X116950580Y-89702287D01*
X116945532Y-89720099D01*
X116945486Y-89720623D01*
X116959377Y-89721963D01*
X116998561Y-89723172D01*
X117059300Y-89724199D01*
X117137859Y-89724998D01*
X117230502Y-89725519D01*
X117333491Y-89725714D01*
X117730658Y-89725714D01*
X117750556Y-89678543D01*
X117770453Y-89631371D01*
X117648711Y-89624114D01*
X117648711Y-89624114D01*
G37*
X117648711Y-89624114D02*
X117589387Y-89619861D01*
X117554428Y-89614975D01*
X117539180Y-89608205D01*
X117538985Y-89598298D01*
X117540805Y-89595086D01*
X117553985Y-89552356D01*
X117553215Y-89496773D01*
X117539667Y-89440263D01*
X117522139Y-89404918D01*
X117494139Y-89368679D01*
X117462451Y-89342187D01*
X117422187Y-89324001D01*
X117368457Y-89312678D01*
X117296374Y-89306778D01*
X117201049Y-89304857D01*
X117182763Y-89304823D01*
X116977354Y-89304800D01*
X116961420Y-89350509D01*
X116950580Y-89382973D01*
X116945532Y-89400785D01*
X116945486Y-89401309D01*
X116959172Y-89403063D01*
X116996924Y-89404556D01*
X117053776Y-89405674D01*
X117124766Y-89406303D01*
X117167927Y-89406400D01*
X117253027Y-89406602D01*
X117314019Y-89407642D01*
X117355823Y-89410169D01*
X117383358Y-89414836D01*
X117401544Y-89422293D01*
X117415302Y-89433189D01*
X117421927Y-89439993D01*
X117448625Y-89486728D01*
X117450625Y-89537728D01*
X117428045Y-89583999D01*
X117419893Y-89592556D01*
X117404564Y-89605107D01*
X117386382Y-89613812D01*
X117360091Y-89619369D01*
X117320438Y-89622474D01*
X117262168Y-89623824D01*
X117181827Y-89624114D01*
X116977354Y-89624114D01*
X116961420Y-89669823D01*
X116950580Y-89702287D01*
X116945532Y-89720099D01*
X116945486Y-89720623D01*
X116959377Y-89721963D01*
X116998561Y-89723172D01*
X117059300Y-89724199D01*
X117137859Y-89724998D01*
X117230502Y-89725519D01*
X117333491Y-89725714D01*
X117730658Y-89725714D01*
X117750556Y-89678543D01*
X117770453Y-89631371D01*
X117648711Y-89624114D01*
G36*
X117549032Y-88960256D02*
X117527913Y-88903384D01*
X117527507Y-88902733D01*
X117501620Y-88867560D01*
X117471367Y-88841593D01*
X117431942Y-88823330D01*
X117378538Y-88811268D01*
X117306349Y-88803904D01*
X117210568Y-88799736D01*
X117196922Y-88799371D01*
X116991158Y-88794124D01*
X116968322Y-88838284D01*
X116952890Y-88870237D01*
X116945577Y-88889530D01*
X116945486Y-88890422D01*
X116958978Y-88893761D01*
X116995374Y-88896413D01*
X117048548Y-88898044D01*
X117091607Y-88898400D01*
X117161359Y-88898408D01*
X117205163Y-88901597D01*
X117226056Y-88912712D01*
X117227075Y-88936499D01*
X117211259Y-88977704D01*
X117182185Y-89039914D01*
X117158037Y-89085659D01*
X117137087Y-89109187D01*
X117114253Y-89116104D01*
X117113123Y-89116114D01*
X117073788Y-89104701D01*
X117052538Y-89070908D01*
X117049461Y-89019191D01*
X117049994Y-88981939D01*
X117039265Y-88962297D01*
X117013495Y-88950048D01*
X116980663Y-88942998D01*
X116962034Y-88953158D01*
X116959368Y-88956983D01*
X116948660Y-88992999D01*
X116947144Y-89043434D01*
X116954241Y-89095374D01*
X116967212Y-89132178D01*
X117010415Y-89183062D01*
X117070554Y-89211986D01*
X117117538Y-89217714D01*
X117159918Y-89213343D01*
X117194512Y-89197525D01*
X117225237Y-89166203D01*
X117256010Y-89115322D01*
X117290748Y-89040824D01*
X117292712Y-89036286D01*
X117323713Y-88969179D01*
X117349138Y-88927768D01*
X117371986Y-88910019D01*
X117395255Y-88913893D01*
X117421944Y-88937357D01*
X117428086Y-88944373D01*
X117451900Y-88991370D01*
X117450897Y-89040067D01*
X117427549Y-89082478D01*
X117384325Y-89110616D01*
X117375840Y-89113231D01*
X117334692Y-89138692D01*
X117314872Y-89170999D01*
X117295230Y-89217714D01*
X117346050Y-89217714D01*
X117419918Y-89203504D01*
X117487673Y-89161325D01*
X117510339Y-89139376D01*
X117539431Y-89089483D01*
X117552600Y-89026033D01*
X117549032Y-88960256D01*
X117549032Y-88960256D01*
G37*
X117549032Y-88960256D02*
X117527913Y-88903384D01*
X117527507Y-88902733D01*
X117501620Y-88867560D01*
X117471367Y-88841593D01*
X117431942Y-88823330D01*
X117378538Y-88811268D01*
X117306349Y-88803904D01*
X117210568Y-88799736D01*
X117196922Y-88799371D01*
X116991158Y-88794124D01*
X116968322Y-88838284D01*
X116952890Y-88870237D01*
X116945577Y-88889530D01*
X116945486Y-88890422D01*
X116958978Y-88893761D01*
X116995374Y-88896413D01*
X117048548Y-88898044D01*
X117091607Y-88898400D01*
X117161359Y-88898408D01*
X117205163Y-88901597D01*
X117226056Y-88912712D01*
X117227075Y-88936499D01*
X117211259Y-88977704D01*
X117182185Y-89039914D01*
X117158037Y-89085659D01*
X117137087Y-89109187D01*
X117114253Y-89116104D01*
X117113123Y-89116114D01*
X117073788Y-89104701D01*
X117052538Y-89070908D01*
X117049461Y-89019191D01*
X117049994Y-88981939D01*
X117039265Y-88962297D01*
X117013495Y-88950048D01*
X116980663Y-88942998D01*
X116962034Y-88953158D01*
X116959368Y-88956983D01*
X116948660Y-88992999D01*
X116947144Y-89043434D01*
X116954241Y-89095374D01*
X116967212Y-89132178D01*
X117010415Y-89183062D01*
X117070554Y-89211986D01*
X117117538Y-89217714D01*
X117159918Y-89213343D01*
X117194512Y-89197525D01*
X117225237Y-89166203D01*
X117256010Y-89115322D01*
X117290748Y-89040824D01*
X117292712Y-89036286D01*
X117323713Y-88969179D01*
X117349138Y-88927768D01*
X117371986Y-88910019D01*
X117395255Y-88913893D01*
X117421944Y-88937357D01*
X117428086Y-88944373D01*
X117451900Y-88991370D01*
X117450897Y-89040067D01*
X117427549Y-89082478D01*
X117384325Y-89110616D01*
X117375840Y-89113231D01*
X117334692Y-89138692D01*
X117314872Y-89170999D01*
X117295230Y-89217714D01*
X117346050Y-89217714D01*
X117419918Y-89203504D01*
X117487673Y-89161325D01*
X117510339Y-89139376D01*
X117539431Y-89089483D01*
X117552600Y-89026033D01*
X117549032Y-88960256D01*
G36*
X117550245Y-88470074D02*
X117525916Y-88404142D01*
X117482883Y-88350727D01*
X117452591Y-88329836D01*
X117397006Y-88307061D01*
X117356814Y-88307534D01*
X117329783Y-88331438D01*
X117325187Y-88340283D01*
X117310856Y-88378470D01*
X117314528Y-88397972D01*
X117338593Y-88404578D01*
X117351886Y-88404914D01*
X117400790Y-88417008D01*
X117435001Y-88448529D01*
X117451524Y-88492341D01*
X117447366Y-88541305D01*
X117425773Y-88581106D01*
X117413456Y-88594550D01*
X117398513Y-88604079D01*
X117375925Y-88610515D01*
X117340672Y-88614683D01*
X117287734Y-88617403D01*
X117212093Y-88619498D01*
X117188143Y-88620040D01*
X117106210Y-88622019D01*
X117048545Y-88624269D01*
X117010392Y-88627643D01*
X116986996Y-88632994D01*
X116973602Y-88641176D01*
X116965455Y-88653041D01*
X116961856Y-88660638D01*
X116949548Y-88692898D01*
X116945486Y-88711889D01*
X116959052Y-88718164D01*
X117000066Y-88721994D01*
X117069001Y-88723400D01*
X117166331Y-88722402D01*
X117181343Y-88722092D01*
X117270141Y-88719899D01*
X117334981Y-88717307D01*
X117380933Y-88713618D01*
X117413065Y-88708136D01*
X117436447Y-88700165D01*
X117456148Y-88689007D01*
X117464590Y-88683170D01*
X117501943Y-88649704D01*
X117530997Y-88612273D01*
X117533533Y-88607691D01*
X117553557Y-88540574D01*
X117550245Y-88470074D01*
X117550245Y-88470074D01*
G37*
X117550245Y-88470074D02*
X117525916Y-88404142D01*
X117482883Y-88350727D01*
X117452591Y-88329836D01*
X117397006Y-88307061D01*
X117356814Y-88307534D01*
X117329783Y-88331438D01*
X117325187Y-88340283D01*
X117310856Y-88378470D01*
X117314528Y-88397972D01*
X117338593Y-88404578D01*
X117351886Y-88404914D01*
X117400790Y-88417008D01*
X117435001Y-88448529D01*
X117451524Y-88492341D01*
X117447366Y-88541305D01*
X117425773Y-88581106D01*
X117413456Y-88594550D01*
X117398513Y-88604079D01*
X117375925Y-88610515D01*
X117340672Y-88614683D01*
X117287734Y-88617403D01*
X117212093Y-88619498D01*
X117188143Y-88620040D01*
X117106210Y-88622019D01*
X117048545Y-88624269D01*
X117010392Y-88627643D01*
X116986996Y-88632994D01*
X116973602Y-88641176D01*
X116965455Y-88653041D01*
X116961856Y-88660638D01*
X116949548Y-88692898D01*
X116945486Y-88711889D01*
X116959052Y-88718164D01*
X117000066Y-88721994D01*
X117069001Y-88723400D01*
X117166331Y-88722402D01*
X117181343Y-88722092D01*
X117270141Y-88719899D01*
X117334981Y-88717307D01*
X117380933Y-88713618D01*
X117413065Y-88708136D01*
X117436447Y-88700165D01*
X117456148Y-88689007D01*
X117464590Y-88683170D01*
X117501943Y-88649704D01*
X117530997Y-88612273D01*
X117533533Y-88607691D01*
X117553557Y-88540574D01*
X117550245Y-88470074D01*
G36*
X117434642Y-87809883D02*
X117326163Y-87810067D01*
X117242713Y-87810781D01*
X117180296Y-87812325D01*
X117134915Y-87814999D01*
X117102571Y-87819106D01*
X117079267Y-87824945D01*
X117061005Y-87832818D01*
X117050582Y-87838779D01*
X116994055Y-87888145D01*
X116958623Y-87950736D01*
X116945910Y-88019987D01*
X116957537Y-88089332D01*
X116978432Y-88130625D01*
X117014578Y-88173975D01*
X117058724Y-88203519D01*
X117116538Y-88221345D01*
X117193687Y-88229537D01*
X117250286Y-88230698D01*
X117254353Y-88230542D01*
X117254353Y-88129143D01*
X117189450Y-88128524D01*
X117146486Y-88125686D01*
X117118378Y-88119160D01*
X117098047Y-88107477D01*
X117082712Y-88093517D01*
X117053110Y-88046635D01*
X117050581Y-87996299D01*
X117075295Y-87948724D01*
X117078644Y-87945021D01*
X117096065Y-87929217D01*
X117116791Y-87919307D01*
X117147638Y-87913942D01*
X117195423Y-87911772D01*
X117248252Y-87911429D01*
X117314619Y-87912173D01*
X117358894Y-87915252D01*
X117387991Y-87921939D01*
X117408827Y-87933504D01*
X117419893Y-87942987D01*
X117447802Y-87987040D01*
X117451157Y-88037776D01*
X117429841Y-88086204D01*
X117421927Y-88095550D01*
X117404353Y-88111460D01*
X117383413Y-88121390D01*
X117352218Y-88126722D01*
X117303878Y-88128837D01*
X117254353Y-88129143D01*
X117254353Y-88230542D01*
X117341432Y-88227190D01*
X117409914Y-88215274D01*
X117461400Y-88192865D01*
X117501557Y-88157876D01*
X117522139Y-88130625D01*
X117544375Y-88081093D01*
X117554696Y-88023684D01*
X117551933Y-87970318D01*
X117540788Y-87940457D01*
X117537617Y-87928739D01*
X117549443Y-87920963D01*
X117581134Y-87915535D01*
X117629407Y-87911429D01*
X117683171Y-87906933D01*
X117715518Y-87900687D01*
X117734015Y-87889324D01*
X117746230Y-87869472D01*
X117751638Y-87857000D01*
X117771399Y-87809829D01*
X117434642Y-87809883D01*
X117434642Y-87809883D01*
G37*
X117434642Y-87809883D02*
X117326163Y-87810067D01*
X117242713Y-87810781D01*
X117180296Y-87812325D01*
X117134915Y-87814999D01*
X117102571Y-87819106D01*
X117079267Y-87824945D01*
X117061005Y-87832818D01*
X117050582Y-87838779D01*
X116994055Y-87888145D01*
X116958623Y-87950736D01*
X116945910Y-88019987D01*
X116957537Y-88089332D01*
X116978432Y-88130625D01*
X117014578Y-88173975D01*
X117058724Y-88203519D01*
X117116538Y-88221345D01*
X117193687Y-88229537D01*
X117250286Y-88230698D01*
X117254353Y-88230542D01*
X117254353Y-88129143D01*
X117189450Y-88128524D01*
X117146486Y-88125686D01*
X117118378Y-88119160D01*
X117098047Y-88107477D01*
X117082712Y-88093517D01*
X117053110Y-88046635D01*
X117050581Y-87996299D01*
X117075295Y-87948724D01*
X117078644Y-87945021D01*
X117096065Y-87929217D01*
X117116791Y-87919307D01*
X117147638Y-87913942D01*
X117195423Y-87911772D01*
X117248252Y-87911429D01*
X117314619Y-87912173D01*
X117358894Y-87915252D01*
X117387991Y-87921939D01*
X117408827Y-87933504D01*
X117419893Y-87942987D01*
X117447802Y-87987040D01*
X117451157Y-88037776D01*
X117429841Y-88086204D01*
X117421927Y-88095550D01*
X117404353Y-88111460D01*
X117383413Y-88121390D01*
X117352218Y-88126722D01*
X117303878Y-88128837D01*
X117254353Y-88129143D01*
X117254353Y-88230542D01*
X117341432Y-88227190D01*
X117409914Y-88215274D01*
X117461400Y-88192865D01*
X117501557Y-88157876D01*
X117522139Y-88130625D01*
X117544375Y-88081093D01*
X117554696Y-88023684D01*
X117551933Y-87970318D01*
X117540788Y-87940457D01*
X117537617Y-87928739D01*
X117549443Y-87920963D01*
X117581134Y-87915535D01*
X117629407Y-87911429D01*
X117683171Y-87906933D01*
X117715518Y-87900687D01*
X117734015Y-87889324D01*
X117746230Y-87869472D01*
X117751638Y-87857000D01*
X117771399Y-87809829D01*
X117434642Y-87809883D01*
G36*
X117541337Y-87220167D02*
X117503150Y-87217952D01*
X117445114Y-87216216D01*
X117371820Y-87215101D01*
X117294945Y-87214743D01*
X117034804Y-87214743D01*
X116988873Y-87260674D01*
X116960571Y-87292325D01*
X116949107Y-87320110D01*
X116949832Y-87358085D01*
X116951679Y-87373160D01*
X116957052Y-87420274D01*
X116960131Y-87459244D01*
X116960415Y-87468743D01*
X116958555Y-87500767D01*
X116953886Y-87546568D01*
X116951679Y-87564326D01*
X116948265Y-87607943D01*
X116955680Y-87637255D01*
X116978573Y-87666320D01*
X116988873Y-87676812D01*
X117034804Y-87722743D01*
X117521398Y-87722743D01*
X117538242Y-87685774D01*
X117550718Y-87653941D01*
X117555086Y-87635317D01*
X117541282Y-87630542D01*
X117502714Y-87626079D01*
X117443644Y-87622225D01*
X117368337Y-87619278D01*
X117304714Y-87617857D01*
X117054343Y-87613886D01*
X117049444Y-87579241D01*
X117052869Y-87547732D01*
X117063959Y-87532292D01*
X117084692Y-87527977D01*
X117128855Y-87524292D01*
X117190854Y-87521531D01*
X117265091Y-87519988D01*
X117303294Y-87519765D01*
X117523217Y-87519543D01*
X117539151Y-87473834D01*
X117549985Y-87441482D01*
X117555038Y-87423885D01*
X117555086Y-87423377D01*
X117541352Y-87421612D01*
X117503270Y-87419671D01*
X117445518Y-87417718D01*
X117372773Y-87415916D01*
X117304714Y-87414657D01*
X117054343Y-87410686D01*
X117054343Y-87323600D01*
X117282760Y-87319604D01*
X117511178Y-87315608D01*
X117533132Y-87273153D01*
X117548207Y-87241808D01*
X117555049Y-87223256D01*
X117555086Y-87222721D01*
X117541337Y-87220167D01*
X117541337Y-87220167D01*
G37*
X117541337Y-87220167D02*
X117503150Y-87217952D01*
X117445114Y-87216216D01*
X117371820Y-87215101D01*
X117294945Y-87214743D01*
X117034804Y-87214743D01*
X116988873Y-87260674D01*
X116960571Y-87292325D01*
X116949107Y-87320110D01*
X116949832Y-87358085D01*
X116951679Y-87373160D01*
X116957052Y-87420274D01*
X116960131Y-87459244D01*
X116960415Y-87468743D01*
X116958555Y-87500767D01*
X116953886Y-87546568D01*
X116951679Y-87564326D01*
X116948265Y-87607943D01*
X116955680Y-87637255D01*
X116978573Y-87666320D01*
X116988873Y-87676812D01*
X117034804Y-87722743D01*
X117521398Y-87722743D01*
X117538242Y-87685774D01*
X117550718Y-87653941D01*
X117555086Y-87635317D01*
X117541282Y-87630542D01*
X117502714Y-87626079D01*
X117443644Y-87622225D01*
X117368337Y-87619278D01*
X117304714Y-87617857D01*
X117054343Y-87613886D01*
X117049444Y-87579241D01*
X117052869Y-87547732D01*
X117063959Y-87532292D01*
X117084692Y-87527977D01*
X117128855Y-87524292D01*
X117190854Y-87521531D01*
X117265091Y-87519988D01*
X117303294Y-87519765D01*
X117523217Y-87519543D01*
X117539151Y-87473834D01*
X117549985Y-87441482D01*
X117555038Y-87423885D01*
X117555086Y-87423377D01*
X117541352Y-87421612D01*
X117503270Y-87419671D01*
X117445518Y-87417718D01*
X117372773Y-87415916D01*
X117304714Y-87414657D01*
X117054343Y-87410686D01*
X117054343Y-87323600D01*
X117282760Y-87319604D01*
X117511178Y-87315608D01*
X117533132Y-87273153D01*
X117548207Y-87241808D01*
X117555049Y-87223256D01*
X117555086Y-87222721D01*
X117541337Y-87220167D01*
G36*
X117543665Y-86855124D02*
X117524656Y-86813333D01*
X117501622Y-86780531D01*
X117475867Y-86756497D01*
X117442642Y-86739903D01*
X117397200Y-86729423D01*
X117334793Y-86723729D01*
X117250673Y-86721493D01*
X117195279Y-86721257D01*
X116979174Y-86721257D01*
X116962330Y-86758226D01*
X116950019Y-86787344D01*
X116945486Y-86801769D01*
X116958975Y-86804528D01*
X116995347Y-86806718D01*
X117048458Y-86808058D01*
X117090628Y-86808343D01*
X117151553Y-86809566D01*
X117199885Y-86812864D01*
X117229482Y-86817679D01*
X117235771Y-86821504D01*
X117229348Y-86847217D01*
X117212875Y-86887582D01*
X117190542Y-86934321D01*
X117166543Y-86979155D01*
X117145070Y-87013807D01*
X117130315Y-87029998D01*
X117130155Y-87030062D01*
X117102848Y-87028670D01*
X117076781Y-87016182D01*
X117055608Y-86994257D01*
X117048526Y-86962257D01*
X117049351Y-86934908D01*
X117049958Y-86896174D01*
X117040884Y-86875842D01*
X117016908Y-86863631D01*
X117012387Y-86862091D01*
X116978194Y-86856797D01*
X116957432Y-86870953D01*
X116947538Y-86907852D01*
X116945708Y-86947711D01*
X116959273Y-87019438D01*
X116978645Y-87056568D01*
X117024155Y-87102424D01*
X117080017Y-87126744D01*
X117139043Y-87128927D01*
X117194047Y-87108371D01*
X117228514Y-87077451D01*
X117247811Y-87046580D01*
X117272241Y-86998058D01*
X117297015Y-86941515D01*
X117300801Y-86932090D01*
X117328209Y-86869981D01*
X117352366Y-86834178D01*
X117376381Y-86822663D01*
X117403365Y-86833420D01*
X117424457Y-86851886D01*
X117450428Y-86895531D01*
X117452376Y-86943554D01*
X117432363Y-86987594D01*
X117392449Y-87019291D01*
X117382152Y-87023451D01*
X117344276Y-87047673D01*
X117316158Y-87083035D01*
X117293083Y-87127657D01*
X117358515Y-87127657D01*
X117398494Y-87125031D01*
X117430003Y-87113770D01*
X117463622Y-87088801D01*
X117489516Y-87064831D01*
X117526183Y-87027559D01*
X117545879Y-86998599D01*
X117553780Y-86967495D01*
X117555086Y-86932287D01*
X117543665Y-86855124D01*
X117543665Y-86855124D01*
G37*
X117543665Y-86855124D02*
X117524656Y-86813333D01*
X117501622Y-86780531D01*
X117475867Y-86756497D01*
X117442642Y-86739903D01*
X117397200Y-86729423D01*
X117334793Y-86723729D01*
X117250673Y-86721493D01*
X117195279Y-86721257D01*
X116979174Y-86721257D01*
X116962330Y-86758226D01*
X116950019Y-86787344D01*
X116945486Y-86801769D01*
X116958975Y-86804528D01*
X116995347Y-86806718D01*
X117048458Y-86808058D01*
X117090628Y-86808343D01*
X117151553Y-86809566D01*
X117199885Y-86812864D01*
X117229482Y-86817679D01*
X117235771Y-86821504D01*
X117229348Y-86847217D01*
X117212875Y-86887582D01*
X117190542Y-86934321D01*
X117166543Y-86979155D01*
X117145070Y-87013807D01*
X117130315Y-87029998D01*
X117130155Y-87030062D01*
X117102848Y-87028670D01*
X117076781Y-87016182D01*
X117055608Y-86994257D01*
X117048526Y-86962257D01*
X117049351Y-86934908D01*
X117049958Y-86896174D01*
X117040884Y-86875842D01*
X117016908Y-86863631D01*
X117012387Y-86862091D01*
X116978194Y-86856797D01*
X116957432Y-86870953D01*
X116947538Y-86907852D01*
X116945708Y-86947711D01*
X116959273Y-87019438D01*
X116978645Y-87056568D01*
X117024155Y-87102424D01*
X117080017Y-87126744D01*
X117139043Y-87128927D01*
X117194047Y-87108371D01*
X117228514Y-87077451D01*
X117247811Y-87046580D01*
X117272241Y-86998058D01*
X117297015Y-86941515D01*
X117300801Y-86932090D01*
X117328209Y-86869981D01*
X117352366Y-86834178D01*
X117376381Y-86822663D01*
X117403365Y-86833420D01*
X117424457Y-86851886D01*
X117450428Y-86895531D01*
X117452376Y-86943554D01*
X117432363Y-86987594D01*
X117392449Y-87019291D01*
X117382152Y-87023451D01*
X117344276Y-87047673D01*
X117316158Y-87083035D01*
X117293083Y-87127657D01*
X117358515Y-87127657D01*
X117398494Y-87125031D01*
X117430003Y-87113770D01*
X117463622Y-87088801D01*
X117489516Y-87064831D01*
X117526183Y-87027559D01*
X117545879Y-86998599D01*
X117553780Y-86967495D01*
X117555086Y-86932287D01*
X117543665Y-86855124D01*
G36*
X117541248Y-86347400D02*
X117533666Y-86330052D01*
X117500872Y-86288644D01*
X117453453Y-86253235D01*
X117402849Y-86231336D01*
X117377902Y-86227771D01*
X117343073Y-86239721D01*
X117324643Y-86265933D01*
X117313484Y-86294036D01*
X117311428Y-86306905D01*
X117326351Y-86313171D01*
X117358825Y-86325544D01*
X117373498Y-86330972D01*
X117424256Y-86361410D01*
X117449573Y-86405480D01*
X117448794Y-86461990D01*
X117447797Y-86466175D01*
X117433493Y-86496345D01*
X117405607Y-86518524D01*
X117360713Y-86533673D01*
X117295385Y-86542750D01*
X117206196Y-86546714D01*
X117158739Y-86547086D01*
X117083929Y-86547270D01*
X117032931Y-86548478D01*
X117000529Y-86551691D01*
X116981505Y-86557891D01*
X116970644Y-86568060D01*
X116962728Y-86583181D01*
X116962330Y-86584054D01*
X116950019Y-86613172D01*
X116945486Y-86627597D01*
X116959191Y-86629814D01*
X116997075Y-86631711D01*
X117054285Y-86633153D01*
X117125973Y-86634002D01*
X117178435Y-86634171D01*
X117279953Y-86633308D01*
X117356968Y-86629930D01*
X117413977Y-86622858D01*
X117455474Y-86610912D01*
X117485957Y-86592910D01*
X117509920Y-86567673D01*
X117526645Y-86542753D01*
X117548903Y-86482829D01*
X117553924Y-86413089D01*
X117541248Y-86347400D01*
X117541248Y-86347400D01*
G37*
X117541248Y-86347400D02*
X117533666Y-86330052D01*
X117500872Y-86288644D01*
X117453453Y-86253235D01*
X117402849Y-86231336D01*
X117377902Y-86227771D01*
X117343073Y-86239721D01*
X117324643Y-86265933D01*
X117313484Y-86294036D01*
X117311428Y-86306905D01*
X117326351Y-86313171D01*
X117358825Y-86325544D01*
X117373498Y-86330972D01*
X117424256Y-86361410D01*
X117449573Y-86405480D01*
X117448794Y-86461990D01*
X117447797Y-86466175D01*
X117433493Y-86496345D01*
X117405607Y-86518524D01*
X117360713Y-86533673D01*
X117295385Y-86542750D01*
X117206196Y-86546714D01*
X117158739Y-86547086D01*
X117083929Y-86547270D01*
X117032931Y-86548478D01*
X117000529Y-86551691D01*
X116981505Y-86557891D01*
X116970644Y-86568060D01*
X116962728Y-86583181D01*
X116962330Y-86584054D01*
X116950019Y-86613172D01*
X116945486Y-86627597D01*
X116959191Y-86629814D01*
X116997075Y-86631711D01*
X117054285Y-86633153D01*
X117125973Y-86634002D01*
X117178435Y-86634171D01*
X117279953Y-86633308D01*
X117356968Y-86629930D01*
X117413977Y-86622858D01*
X117455474Y-86610912D01*
X117485957Y-86592910D01*
X117509920Y-86567673D01*
X117526645Y-86542753D01*
X117548903Y-86482829D01*
X117553924Y-86413089D01*
X117541248Y-86347400D01*
G36*
X117533034Y-85846405D02*
X117495503Y-85788979D01*
X117461904Y-85761281D01*
X117400936Y-85739338D01*
X117352692Y-85737595D01*
X117288184Y-85741543D01*
X117223066Y-85890314D01*
X117189798Y-85962651D01*
X117163036Y-86009916D01*
X117139856Y-86034493D01*
X117117333Y-86038763D01*
X117092545Y-86025111D01*
X117076114Y-86010057D01*
X117049765Y-85966254D01*
X117047919Y-85918611D01*
X117068454Y-85874855D01*
X117109248Y-85842711D01*
X117123653Y-85836962D01*
X117168644Y-85809424D01*
X117187818Y-85777742D01*
X117204221Y-85734286D01*
X117142034Y-85734286D01*
X117099717Y-85738128D01*
X117064031Y-85753177D01*
X117023057Y-85784720D01*
X117017733Y-85789408D01*
X116981280Y-85824494D01*
X116961717Y-85854653D01*
X116952717Y-85892385D01*
X116949770Y-85923665D01*
X116949035Y-85979615D01*
X116958340Y-86019445D01*
X116972154Y-86044292D01*
X117002533Y-86083344D01*
X117035387Y-86110375D01*
X117076706Y-86127483D01*
X117132479Y-86136762D01*
X117208695Y-86140307D01*
X117247378Y-86140590D01*
X117293753Y-86139628D01*
X117293753Y-86051993D01*
X117268874Y-86050977D01*
X117264800Y-86048444D01*
X117270335Y-86031726D01*
X117284983Y-85995751D01*
X117305810Y-85947669D01*
X117310286Y-85937614D01*
X117341186Y-85876848D01*
X117368343Y-85843368D01*
X117393780Y-85836010D01*
X117419519Y-85853609D01*
X117430891Y-85868144D01*
X117453636Y-85920590D01*
X117449878Y-85969678D01*
X117422116Y-86010773D01*
X117372848Y-86039242D01*
X117333743Y-86048369D01*
X117293753Y-86051993D01*
X117293753Y-86139628D01*
X117337751Y-86138715D01*
X117404616Y-86131804D01*
X117453305Y-86118116D01*
X117489151Y-86095904D01*
X117517487Y-86063426D01*
X117526645Y-86049267D01*
X117550493Y-85984947D01*
X117551994Y-85914527D01*
X117533034Y-85846405D01*
X117533034Y-85846405D01*
G37*
X117533034Y-85846405D02*
X117495503Y-85788979D01*
X117461904Y-85761281D01*
X117400936Y-85739338D01*
X117352692Y-85737595D01*
X117288184Y-85741543D01*
X117223066Y-85890314D01*
X117189798Y-85962651D01*
X117163036Y-86009916D01*
X117139856Y-86034493D01*
X117117333Y-86038763D01*
X117092545Y-86025111D01*
X117076114Y-86010057D01*
X117049765Y-85966254D01*
X117047919Y-85918611D01*
X117068454Y-85874855D01*
X117109248Y-85842711D01*
X117123653Y-85836962D01*
X117168644Y-85809424D01*
X117187818Y-85777742D01*
X117204221Y-85734286D01*
X117142034Y-85734286D01*
X117099717Y-85738128D01*
X117064031Y-85753177D01*
X117023057Y-85784720D01*
X117017733Y-85789408D01*
X116981280Y-85824494D01*
X116961717Y-85854653D01*
X116952717Y-85892385D01*
X116949770Y-85923665D01*
X116949035Y-85979615D01*
X116958340Y-86019445D01*
X116972154Y-86044292D01*
X117002533Y-86083344D01*
X117035387Y-86110375D01*
X117076706Y-86127483D01*
X117132479Y-86136762D01*
X117208695Y-86140307D01*
X117247378Y-86140590D01*
X117293753Y-86139628D01*
X117293753Y-86051993D01*
X117268874Y-86050977D01*
X117264800Y-86048444D01*
X117270335Y-86031726D01*
X117284983Y-85995751D01*
X117305810Y-85947669D01*
X117310286Y-85937614D01*
X117341186Y-85876848D01*
X117368343Y-85843368D01*
X117393780Y-85836010D01*
X117419519Y-85853609D01*
X117430891Y-85868144D01*
X117453636Y-85920590D01*
X117449878Y-85969678D01*
X117422116Y-86010773D01*
X117372848Y-86039242D01*
X117333743Y-86048369D01*
X117293753Y-86051993D01*
X117293753Y-86139628D01*
X117337751Y-86138715D01*
X117404616Y-86131804D01*
X117453305Y-86118116D01*
X117489151Y-86095904D01*
X117517487Y-86063426D01*
X117526645Y-86049267D01*
X117550493Y-85984947D01*
X117551994Y-85914527D01*
X117533034Y-85846405D01*
G36*
X122257652Y-88896090D02*
X122257222Y-88817546D01*
X122256058Y-88760702D01*
X122253793Y-88721895D01*
X122250060Y-88697462D01*
X122244494Y-88683738D01*
X122236727Y-88677060D01*
X122226395Y-88673764D01*
X122225057Y-88673444D01*
X122200921Y-88668438D01*
X122153299Y-88659171D01*
X122087259Y-88646608D01*
X122007872Y-88631713D01*
X121920204Y-88615449D01*
X121917125Y-88614881D01*
X121831211Y-88598590D01*
X121755304Y-88583348D01*
X121693955Y-88570139D01*
X121651718Y-88559946D01*
X121633145Y-88553752D01*
X121632816Y-88553457D01*
X121623747Y-88535212D01*
X121608633Y-88497595D01*
X121590738Y-88448729D01*
X121590642Y-88448457D01*
X121567507Y-88386907D01*
X121538035Y-88314343D01*
X121508403Y-88245943D01*
X121506938Y-88242706D01*
X121456374Y-88131298D01*
X121624840Y-87884601D01*
X121676197Y-87808923D01*
X121722111Y-87740369D01*
X121759970Y-87682912D01*
X121787163Y-87640524D01*
X121801079Y-87617175D01*
X121802111Y-87614958D01*
X121797516Y-87597990D01*
X121775345Y-87566299D01*
X121734553Y-87518648D01*
X121674095Y-87453802D01*
X121609773Y-87387603D01*
X121546388Y-87323786D01*
X121488549Y-87266671D01*
X121439825Y-87219695D01*
X121403790Y-87186297D01*
X121384016Y-87169915D01*
X121382998Y-87169306D01*
X121369428Y-87167495D01*
X121347267Y-87174317D01*
X121313522Y-87191460D01*
X121265200Y-87220607D01*
X121199308Y-87263445D01*
X121114483Y-87320552D01*
X121039823Y-87371234D01*
X120972860Y-87416539D01*
X120917484Y-87453850D01*
X120877580Y-87480548D01*
X120857038Y-87494015D01*
X120855644Y-87494863D01*
X120835962Y-87493219D01*
X120797707Y-87480755D01*
X120748111Y-87459952D01*
X120732272Y-87452538D01*
X120661710Y-87420186D01*
X120581647Y-87385672D01*
X120512371Y-87357635D01*
X120460955Y-87337432D01*
X120421881Y-87321385D01*
X120401459Y-87312112D01*
X120399886Y-87310959D01*
X120397279Y-87293904D01*
X120390137Y-87253702D01*
X120379477Y-87195698D01*
X120366315Y-87125237D01*
X120351667Y-87047665D01*
X120336551Y-86968328D01*
X120321982Y-86892569D01*
X120308978Y-86825736D01*
X120298555Y-86773172D01*
X120291730Y-86740224D01*
X120289801Y-86732143D01*
X120285038Y-86723795D01*
X120274282Y-86717494D01*
X120253902Y-86712955D01*
X120220266Y-86709896D01*
X120169745Y-86708033D01*
X120098708Y-86707082D01*
X120003524Y-86706760D01*
X119964508Y-86706743D01*
X119647201Y-86706743D01*
X119632161Y-86782943D01*
X119624005Y-86825337D01*
X119612101Y-86888600D01*
X119597884Y-86965038D01*
X119582790Y-87046957D01*
X119578645Y-87069600D01*
X119563947Y-87145194D01*
X119549495Y-87211047D01*
X119536625Y-87261634D01*
X119526678Y-87291426D01*
X119523713Y-87296388D01*
X119502717Y-87308574D01*
X119462033Y-87326047D01*
X119409678Y-87345423D01*
X119398400Y-87349266D01*
X119328477Y-87374661D01*
X119249582Y-87406183D01*
X119178734Y-87437031D01*
X119178405Y-87437183D01*
X119067267Y-87488553D01*
X118818747Y-87319601D01*
X118570228Y-87150648D01*
X118352942Y-87367571D01*
X118288274Y-87433181D01*
X118231267Y-87493021D01*
X118184967Y-87543733D01*
X118152416Y-87581954D01*
X118136657Y-87604325D01*
X118135657Y-87607534D01*
X118143531Y-87626374D01*
X118165422Y-87664820D01*
X118198733Y-87718670D01*
X118240869Y-87783724D01*
X118288057Y-87854060D01*
X118336190Y-87925445D01*
X118378072Y-87989092D01*
X118411129Y-88040959D01*
X118432782Y-88077005D01*
X118440457Y-88093133D01*
X118433963Y-88112811D01*
X118416850Y-88150125D01*
X118392674Y-88197379D01*
X118389987Y-88202388D01*
X118358073Y-88266023D01*
X118342421Y-88309659D01*
X118342255Y-88336798D01*
X118356796Y-88350943D01*
X118357000Y-88351025D01*
X118374221Y-88358095D01*
X118415101Y-88374958D01*
X118476475Y-88400305D01*
X118555181Y-88432829D01*
X118648053Y-88471222D01*
X118751928Y-88514178D01*
X118852498Y-88555778D01*
X118963484Y-88601496D01*
X119066297Y-88643474D01*
X119157785Y-88680452D01*
X119234799Y-88711173D01*
X119294185Y-88734378D01*
X119332791Y-88748810D01*
X119347200Y-88753257D01*
X119363728Y-88742104D01*
X119390070Y-88712931D01*
X119419113Y-88674029D01*
X119510961Y-88563243D01*
X119616241Y-88476649D01*
X119732734Y-88415284D01*
X119858224Y-88380185D01*
X119990493Y-88372392D01*
X120051543Y-88378057D01*
X120178205Y-88408922D01*
X120290059Y-88462080D01*
X120385999Y-88534233D01*
X120464924Y-88622083D01*
X120525730Y-88722335D01*
X120567313Y-88831690D01*
X120588572Y-88946853D01*
X120588401Y-89064525D01*
X120565699Y-89181410D01*
X120519362Y-89294211D01*
X120448287Y-89399631D01*
X120408089Y-89443632D01*
X120304871Y-89528021D01*
X120192075Y-89586778D01*
X120072990Y-89620296D01*
X119950905Y-89628965D01*
X119829107Y-89613177D01*
X119710884Y-89573322D01*
X119599525Y-89509793D01*
X119498316Y-89422979D01*
X119419113Y-89325971D01*
X119388838Y-89285563D01*
X119362781Y-89257018D01*
X119347175Y-89246743D01*
X119330157Y-89252123D01*
X119289500Y-89267425D01*
X119228358Y-89291388D01*
X119149881Y-89322756D01*
X119057220Y-89360268D01*
X118953528Y-89402667D01*
X118852474Y-89444337D01*
X118741393Y-89490310D01*
X118638459Y-89532893D01*
X118546835Y-89570779D01*
X118469684Y-89602660D01*
X118410169Y-89627229D01*
X118371456Y-89643180D01*
X118357000Y-89649090D01*
X118342315Y-89663052D01*
X118342358Y-89690060D01*
X118357901Y-89733587D01*
X118389716Y-89797110D01*
X118389987Y-89797612D01*
X118414677Y-89845440D01*
X118432662Y-89884103D01*
X118440386Y-89905905D01*
X118440457Y-89906867D01*
X118432622Y-89923279D01*
X118410835Y-89959513D01*
X118377672Y-90011526D01*
X118335709Y-90075275D01*
X118288057Y-90145940D01*
X118239809Y-90217884D01*
X118197849Y-90282726D01*
X118164773Y-90336265D01*
X118143179Y-90374303D01*
X118135657Y-90392467D01*
X118145543Y-90409192D01*
X118173174Y-90442820D01*
X118215505Y-90489990D01*
X118269495Y-90547342D01*
X118332101Y-90611516D01*
X118353017Y-90632503D01*
X118570377Y-90849501D01*
X118812780Y-90684332D01*
X118887219Y-90634136D01*
X118954028Y-90590081D01*
X119009335Y-90554638D01*
X119049271Y-90530281D01*
X119069964Y-90519478D01*
X119071437Y-90519162D01*
X119090942Y-90524857D01*
X119130178Y-90540174D01*
X119182570Y-90562463D01*
X119217645Y-90578107D01*
X119284799Y-90607359D01*
X119352642Y-90634906D01*
X119409966Y-90656263D01*
X119427428Y-90662065D01*
X119474062Y-90678548D01*
X119510095Y-90694660D01*
X119523713Y-90703510D01*
X119532048Y-90723040D01*
X119543863Y-90765666D01*
X119557819Y-90825855D01*
X119572578Y-90898078D01*
X119578645Y-90930400D01*
X119593727Y-91012478D01*
X119608331Y-91091205D01*
X119621020Y-91158891D01*
X119630358Y-91207840D01*
X119632161Y-91217057D01*
X119647201Y-91293257D01*
X119964508Y-91293257D01*
X120068846Y-91293086D01*
X120147787Y-91292384D01*
X120204962Y-91290866D01*
X120244001Y-91288251D01*
X120268535Y-91284254D01*
X120282195Y-91278591D01*
X120288611Y-91270980D01*
X120289801Y-91267857D01*
X120294020Y-91249022D01*
X120302438Y-91207412D01*
X120314039Y-91148370D01*
X120327805Y-91077243D01*
X120342720Y-90999375D01*
X120357768Y-90920113D01*
X120371931Y-90844802D01*
X120384194Y-90778787D01*
X120393539Y-90727413D01*
X120398950Y-90696025D01*
X120399886Y-90689041D01*
X120412404Y-90682715D01*
X120445754Y-90668710D01*
X120493623Y-90649645D01*
X120512371Y-90642366D01*
X120584805Y-90613004D01*
X120664830Y-90578429D01*
X120732272Y-90547463D01*
X120783841Y-90524677D01*
X120826215Y-90509518D01*
X120852166Y-90504458D01*
X120855644Y-90505264D01*
X120872064Y-90515959D01*
X120908583Y-90540380D01*
X120961313Y-90575905D01*
X121026365Y-90619913D01*
X121099849Y-90669783D01*
X121114355Y-90679644D01*
X121200296Y-90737508D01*
X121265739Y-90780044D01*
X121313696Y-90808946D01*
X121347180Y-90825910D01*
X121369205Y-90832633D01*
X121382783Y-90830810D01*
X121382869Y-90830764D01*
X121400703Y-90816414D01*
X121435183Y-90784677D01*
X121482732Y-90738990D01*
X121539778Y-90682796D01*
X121602745Y-90619532D01*
X121609773Y-90612398D01*
X121686980Y-90532670D01*
X121743670Y-90471143D01*
X121780890Y-90426579D01*
X121799685Y-90397743D01*
X121802111Y-90385042D01*
X121791529Y-90366506D01*
X121767084Y-90328039D01*
X121731388Y-90273614D01*
X121687053Y-90207202D01*
X121636689Y-90132775D01*
X121624840Y-90115399D01*
X121456374Y-89868703D01*
X121506938Y-89757294D01*
X121536405Y-89689543D01*
X121566041Y-89616817D01*
X121589670Y-89554297D01*
X121590642Y-89551543D01*
X121608543Y-89502640D01*
X121623680Y-89464943D01*
X121632790Y-89446575D01*
X121632816Y-89446544D01*
X121649283Y-89440715D01*
X121689781Y-89430808D01*
X121749758Y-89417805D01*
X121824660Y-89402691D01*
X121909936Y-89386448D01*
X121917125Y-89385119D01*
X122004986Y-89368825D01*
X122084740Y-89353867D01*
X122151319Y-89341209D01*
X122199653Y-89331814D01*
X122224675Y-89326646D01*
X122225057Y-89326556D01*
X122235701Y-89323411D01*
X122243738Y-89317296D01*
X122249533Y-89304547D01*
X122253453Y-89281500D01*
X122255865Y-89244491D01*
X122257135Y-89189856D01*
X122257629Y-89113933D01*
X122257714Y-89013056D01*
X122257714Y-89000000D01*
X122257652Y-88896090D01*
X122257652Y-88896090D01*
G37*
X122257652Y-88896090D02*
X122257222Y-88817546D01*
X122256058Y-88760702D01*
X122253793Y-88721895D01*
X122250060Y-88697462D01*
X122244494Y-88683738D01*
X122236727Y-88677060D01*
X122226395Y-88673764D01*
X122225057Y-88673444D01*
X122200921Y-88668438D01*
X122153299Y-88659171D01*
X122087259Y-88646608D01*
X122007872Y-88631713D01*
X121920204Y-88615449D01*
X121917125Y-88614881D01*
X121831211Y-88598590D01*
X121755304Y-88583348D01*
X121693955Y-88570139D01*
X121651718Y-88559946D01*
X121633145Y-88553752D01*
X121632816Y-88553457D01*
X121623747Y-88535212D01*
X121608633Y-88497595D01*
X121590738Y-88448729D01*
X121590642Y-88448457D01*
X121567507Y-88386907D01*
X121538035Y-88314343D01*
X121508403Y-88245943D01*
X121506938Y-88242706D01*
X121456374Y-88131298D01*
X121624840Y-87884601D01*
X121676197Y-87808923D01*
X121722111Y-87740369D01*
X121759970Y-87682912D01*
X121787163Y-87640524D01*
X121801079Y-87617175D01*
X121802111Y-87614958D01*
X121797516Y-87597990D01*
X121775345Y-87566299D01*
X121734553Y-87518648D01*
X121674095Y-87453802D01*
X121609773Y-87387603D01*
X121546388Y-87323786D01*
X121488549Y-87266671D01*
X121439825Y-87219695D01*
X121403790Y-87186297D01*
X121384016Y-87169915D01*
X121382998Y-87169306D01*
X121369428Y-87167495D01*
X121347267Y-87174317D01*
X121313522Y-87191460D01*
X121265200Y-87220607D01*
X121199308Y-87263445D01*
X121114483Y-87320552D01*
X121039823Y-87371234D01*
X120972860Y-87416539D01*
X120917484Y-87453850D01*
X120877580Y-87480548D01*
X120857038Y-87494015D01*
X120855644Y-87494863D01*
X120835962Y-87493219D01*
X120797707Y-87480755D01*
X120748111Y-87459952D01*
X120732272Y-87452538D01*
X120661710Y-87420186D01*
X120581647Y-87385672D01*
X120512371Y-87357635D01*
X120460955Y-87337432D01*
X120421881Y-87321385D01*
X120401459Y-87312112D01*
X120399886Y-87310959D01*
X120397279Y-87293904D01*
X120390137Y-87253702D01*
X120379477Y-87195698D01*
X120366315Y-87125237D01*
X120351667Y-87047665D01*
X120336551Y-86968328D01*
X120321982Y-86892569D01*
X120308978Y-86825736D01*
X120298555Y-86773172D01*
X120291730Y-86740224D01*
X120289801Y-86732143D01*
X120285038Y-86723795D01*
X120274282Y-86717494D01*
X120253902Y-86712955D01*
X120220266Y-86709896D01*
X120169745Y-86708033D01*
X120098708Y-86707082D01*
X120003524Y-86706760D01*
X119964508Y-86706743D01*
X119647201Y-86706743D01*
X119632161Y-86782943D01*
X119624005Y-86825337D01*
X119612101Y-86888600D01*
X119597884Y-86965038D01*
X119582790Y-87046957D01*
X119578645Y-87069600D01*
X119563947Y-87145194D01*
X119549495Y-87211047D01*
X119536625Y-87261634D01*
X119526678Y-87291426D01*
X119523713Y-87296388D01*
X119502717Y-87308574D01*
X119462033Y-87326047D01*
X119409678Y-87345423D01*
X119398400Y-87349266D01*
X119328477Y-87374661D01*
X119249582Y-87406183D01*
X119178734Y-87437031D01*
X119178405Y-87437183D01*
X119067267Y-87488553D01*
X118818747Y-87319601D01*
X118570228Y-87150648D01*
X118352942Y-87367571D01*
X118288274Y-87433181D01*
X118231267Y-87493021D01*
X118184967Y-87543733D01*
X118152416Y-87581954D01*
X118136657Y-87604325D01*
X118135657Y-87607534D01*
X118143531Y-87626374D01*
X118165422Y-87664820D01*
X118198733Y-87718670D01*
X118240869Y-87783724D01*
X118288057Y-87854060D01*
X118336190Y-87925445D01*
X118378072Y-87989092D01*
X118411129Y-88040959D01*
X118432782Y-88077005D01*
X118440457Y-88093133D01*
X118433963Y-88112811D01*
X118416850Y-88150125D01*
X118392674Y-88197379D01*
X118389987Y-88202388D01*
X118358073Y-88266023D01*
X118342421Y-88309659D01*
X118342255Y-88336798D01*
X118356796Y-88350943D01*
X118357000Y-88351025D01*
X118374221Y-88358095D01*
X118415101Y-88374958D01*
X118476475Y-88400305D01*
X118555181Y-88432829D01*
X118648053Y-88471222D01*
X118751928Y-88514178D01*
X118852498Y-88555778D01*
X118963484Y-88601496D01*
X119066297Y-88643474D01*
X119157785Y-88680452D01*
X119234799Y-88711173D01*
X119294185Y-88734378D01*
X119332791Y-88748810D01*
X119347200Y-88753257D01*
X119363728Y-88742104D01*
X119390070Y-88712931D01*
X119419113Y-88674029D01*
X119510961Y-88563243D01*
X119616241Y-88476649D01*
X119732734Y-88415284D01*
X119858224Y-88380185D01*
X119990493Y-88372392D01*
X120051543Y-88378057D01*
X120178205Y-88408922D01*
X120290059Y-88462080D01*
X120385999Y-88534233D01*
X120464924Y-88622083D01*
X120525730Y-88722335D01*
X120567313Y-88831690D01*
X120588572Y-88946853D01*
X120588401Y-89064525D01*
X120565699Y-89181410D01*
X120519362Y-89294211D01*
X120448287Y-89399631D01*
X120408089Y-89443632D01*
X120304871Y-89528021D01*
X120192075Y-89586778D01*
X120072990Y-89620296D01*
X119950905Y-89628965D01*
X119829107Y-89613177D01*
X119710884Y-89573322D01*
X119599525Y-89509793D01*
X119498316Y-89422979D01*
X119419113Y-89325971D01*
X119388838Y-89285563D01*
X119362781Y-89257018D01*
X119347175Y-89246743D01*
X119330157Y-89252123D01*
X119289500Y-89267425D01*
X119228358Y-89291388D01*
X119149881Y-89322756D01*
X119057220Y-89360268D01*
X118953528Y-89402667D01*
X118852474Y-89444337D01*
X118741393Y-89490310D01*
X118638459Y-89532893D01*
X118546835Y-89570779D01*
X118469684Y-89602660D01*
X118410169Y-89627229D01*
X118371456Y-89643180D01*
X118357000Y-89649090D01*
X118342315Y-89663052D01*
X118342358Y-89690060D01*
X118357901Y-89733587D01*
X118389716Y-89797110D01*
X118389987Y-89797612D01*
X118414677Y-89845440D01*
X118432662Y-89884103D01*
X118440386Y-89905905D01*
X118440457Y-89906867D01*
X118432622Y-89923279D01*
X118410835Y-89959513D01*
X118377672Y-90011526D01*
X118335709Y-90075275D01*
X118288057Y-90145940D01*
X118239809Y-90217884D01*
X118197849Y-90282726D01*
X118164773Y-90336265D01*
X118143179Y-90374303D01*
X118135657Y-90392467D01*
X118145543Y-90409192D01*
X118173174Y-90442820D01*
X118215505Y-90489990D01*
X118269495Y-90547342D01*
X118332101Y-90611516D01*
X118353017Y-90632503D01*
X118570377Y-90849501D01*
X118812780Y-90684332D01*
X118887219Y-90634136D01*
X118954028Y-90590081D01*
X119009335Y-90554638D01*
X119049271Y-90530281D01*
X119069964Y-90519478D01*
X119071437Y-90519162D01*
X119090942Y-90524857D01*
X119130178Y-90540174D01*
X119182570Y-90562463D01*
X119217645Y-90578107D01*
X119284799Y-90607359D01*
X119352642Y-90634906D01*
X119409966Y-90656263D01*
X119427428Y-90662065D01*
X119474062Y-90678548D01*
X119510095Y-90694660D01*
X119523713Y-90703510D01*
X119532048Y-90723040D01*
X119543863Y-90765666D01*
X119557819Y-90825855D01*
X119572578Y-90898078D01*
X119578645Y-90930400D01*
X119593727Y-91012478D01*
X119608331Y-91091205D01*
X119621020Y-91158891D01*
X119630358Y-91207840D01*
X119632161Y-91217057D01*
X119647201Y-91293257D01*
X119964508Y-91293257D01*
X120068846Y-91293086D01*
X120147787Y-91292384D01*
X120204962Y-91290866D01*
X120244001Y-91288251D01*
X120268535Y-91284254D01*
X120282195Y-91278591D01*
X120288611Y-91270980D01*
X120289801Y-91267857D01*
X120294020Y-91249022D01*
X120302438Y-91207412D01*
X120314039Y-91148370D01*
X120327805Y-91077243D01*
X120342720Y-90999375D01*
X120357768Y-90920113D01*
X120371931Y-90844802D01*
X120384194Y-90778787D01*
X120393539Y-90727413D01*
X120398950Y-90696025D01*
X120399886Y-90689041D01*
X120412404Y-90682715D01*
X120445754Y-90668710D01*
X120493623Y-90649645D01*
X120512371Y-90642366D01*
X120584805Y-90613004D01*
X120664830Y-90578429D01*
X120732272Y-90547463D01*
X120783841Y-90524677D01*
X120826215Y-90509518D01*
X120852166Y-90504458D01*
X120855644Y-90505264D01*
X120872064Y-90515959D01*
X120908583Y-90540380D01*
X120961313Y-90575905D01*
X121026365Y-90619913D01*
X121099849Y-90669783D01*
X121114355Y-90679644D01*
X121200296Y-90737508D01*
X121265739Y-90780044D01*
X121313696Y-90808946D01*
X121347180Y-90825910D01*
X121369205Y-90832633D01*
X121382783Y-90830810D01*
X121382869Y-90830764D01*
X121400703Y-90816414D01*
X121435183Y-90784677D01*
X121482732Y-90738990D01*
X121539778Y-90682796D01*
X121602745Y-90619532D01*
X121609773Y-90612398D01*
X121686980Y-90532670D01*
X121743670Y-90471143D01*
X121780890Y-90426579D01*
X121799685Y-90397743D01*
X121802111Y-90385042D01*
X121791529Y-90366506D01*
X121767084Y-90328039D01*
X121731388Y-90273614D01*
X121687053Y-90207202D01*
X121636689Y-90132775D01*
X121624840Y-90115399D01*
X121456374Y-89868703D01*
X121506938Y-89757294D01*
X121536405Y-89689543D01*
X121566041Y-89616817D01*
X121589670Y-89554297D01*
X121590642Y-89551543D01*
X121608543Y-89502640D01*
X121623680Y-89464943D01*
X121632790Y-89446575D01*
X121632816Y-89446544D01*
X121649283Y-89440715D01*
X121689781Y-89430808D01*
X121749758Y-89417805D01*
X121824660Y-89402691D01*
X121909936Y-89386448D01*
X121917125Y-89385119D01*
X122004986Y-89368825D01*
X122084740Y-89353867D01*
X122151319Y-89341209D01*
X122199653Y-89331814D01*
X122224675Y-89326646D01*
X122225057Y-89326556D01*
X122235701Y-89323411D01*
X122243738Y-89317296D01*
X122249533Y-89304547D01*
X122253453Y-89281500D01*
X122255865Y-89244491D01*
X122257135Y-89189856D01*
X122257629Y-89113933D01*
X122257714Y-89013056D01*
X122257714Y-89000000D01*
X122257652Y-88896090D01*
D11*
X121278333Y-93372381D02*
X121278333Y-94086667D01*
X121325953Y-94229524D01*
X121421191Y-94324762D01*
X121564048Y-94372381D01*
X121659286Y-94372381D01*
X120802143Y-94372381D02*
X120802143Y-93372381D01*
X120421190Y-93372381D01*
X120325952Y-93420000D01*
X120278333Y-93467619D01*
X120230714Y-93562857D01*
X120230714Y-93705714D01*
X120278333Y-93800952D01*
X120325952Y-93848571D01*
X120421190Y-93896190D01*
X120802143Y-93896190D01*
X119278333Y-94372381D02*
X119849762Y-94372381D01*
X119564048Y-94372381D02*
X119564048Y-93372381D01*
X119659286Y-93515238D01*
X119754524Y-93610476D01*
X119849762Y-93658095D01*
X121278333Y-91467381D02*
X121278333Y-92181667D01*
X121325953Y-92324524D01*
X121421191Y-92419762D01*
X121564048Y-92467381D01*
X121659286Y-92467381D01*
X120802143Y-92467381D02*
X120802143Y-91467381D01*
X120421190Y-91467381D01*
X120325952Y-91515000D01*
X120278333Y-91562619D01*
X120230714Y-91657857D01*
X120230714Y-91800714D01*
X120278333Y-91895952D01*
X120325952Y-91943571D01*
X120421190Y-91991190D01*
X120802143Y-91991190D01*
X119849762Y-91562619D02*
X119802143Y-91515000D01*
X119706905Y-91467381D01*
X119468809Y-91467381D01*
X119373571Y-91515000D01*
X119325952Y-91562619D01*
X119278333Y-91657857D01*
X119278333Y-91753095D01*
X119325952Y-91895952D01*
X119897381Y-92467381D01*
X119278333Y-92467381D01*
M02*
